<svg width="100" height="100" viewBox="0 0 100 100" version="1.1" xmlns="http://www.w3.org/2000/svg" xmlns:xlink="http://www.w3.org/1999/xlink">
<title>buyer</title>
<desc>Created using Figma</desc>
<g id="Canvas" transform="translate(-382 -741)">
<g id="buyer">
<g id="Rectangle">
<use xlink:href="#path0_fill" transform="translate(382 741)" fill="#FFFFFF"/>
</g>
<g id="Group">
<g id="Rectangle">
<mask id="mask0_outline_ins">
<use xlink:href="#path1_fill" fill="white" transform="matrix(-1 0 0 1 458 760)"/>
</mask>
<g mask="url(#mask0_outline_ins)">
<use xlink:href="#path2_stroke_2x" transform="matrix(-1 0 0 1 458 760)" fill="#20E8B6"/>
</g>
</g>
<g id="Line">
<use xlink:href="#path3_stroke" transform="matrix(0.697717 0.716373 -0.805718 0.592299 440.208 767.971)" fill="#20E8B6"/>
</g>
</g>
</g>
</g>
<defs>
<path id="path0_fill" d="M 0 0L 100 0L 100 100L 0 100L 0 0Z"/>
<path id="path1_fill" d="M 46.1261 2.02815C 30.133 -0.732961 19.7492 -0.613881 4.85024 2.0139C 2.02807 2.51166 0 4.98906 0 7.85479L 0 34.0205C 0 35.1251 0.297148 36.2127 0.907432 37.1334C 9.71408 50.4194 26.5 61.61 26.5 61.61C 26.5 61.61 41.519 50.9189 50.1593 37.0995C 50.7233 36.1975 51 35.1489 51 34.0851L 51 7.87285C 51 4.99902 48.958 2.51707 46.1261 2.02815Z"/>
<path id="path2_stroke_2x" d="M 4.85024 2.0139L 5.37131 4.9683L 4.85024 2.0139ZM 46.1261 2.02815L 45.6157 4.98442L 45.6157 4.98442L 46.1261 2.02815ZM 0.907432 37.1334L -1.59311 38.7908L -1.59311 38.7908L 0.907432 37.1334ZM 26.5 61.61L 24.8359 64.1061C 25.8715 64.7965 27.2258 64.7758 28.2397 64.054L 26.5 61.61ZM 50.1593 37.0995L 52.703 38.6899L 52.703 38.6899L 50.1593 37.0995ZM 5.37131 4.9683C 19.93 2.40053 29.9649 2.28239 45.6157 4.98442L 46.6365 -0.928116C 30.3012 -3.74831 19.5684 -3.62829 4.32916 -0.940496L 5.37131 4.9683ZM 48 7.87285L 48 34.0851L 54 34.0851L 54 7.87285L 48 7.87285ZM 3 34.0205L 3 7.85479L -3 7.85479L -3 34.0205L 3 34.0205ZM -1.59311 38.7908C 3.04324 45.7854 9.69396 52.1208 15.0744 56.6492C 17.7835 58.9293 20.2107 60.7844 21.9639 62.0719C 22.8411 62.7161 23.5514 63.2195 24.046 63.5643C 24.2933 63.7367 24.4868 63.8695 24.6205 63.9605C 24.6873 64.0061 24.7392 64.0411 24.7753 64.0655C 24.7934 64.0777 24.8076 64.0872 24.8177 64.094C 24.8227 64.0973 24.8268 64.1001 24.8298 64.1021C 24.8314 64.1031 24.8326 64.104 24.8336 64.1046C 24.8341 64.105 24.8347 64.1053 24.835 64.1055C 24.8355 64.1058 24.8359 64.1061 26.5 61.61C 28.1641 59.1138 28.1644 59.114 28.1647 59.1142C 28.1647 59.1142 28.1648 59.1143 28.1648 59.1143C 28.1648 59.1143 28.1646 59.1141 28.164 59.1138C 28.163 59.1131 28.161 59.1117 28.1579 59.1097C 28.1518 59.1056 28.1418 59.0989 28.1278 59.0895C 28.0999 59.0707 28.0565 59.0413 27.9982 59.0016C 27.8817 58.9222 27.7059 58.8017 27.4771 58.6421C 27.0193 58.323 26.3493 57.8483 25.5153 57.2358C 23.846 56.0099 21.5262 54.237 18.938 52.0587C 13.7238 47.6702 7.57828 41.7673 3.40798 35.4759L -1.59311 38.7908ZM 26.5 61.61C 28.2397 64.054 28.2402 64.0537 28.2407 64.0533C 28.241 64.0531 28.2416 64.0527 28.2421 64.0524C 28.2431 64.0517 28.2443 64.0508 28.2457 64.0497C 28.2486 64.0477 28.2525 64.0449 28.2572 64.0416C 28.2666 64.0348 28.2797 64.0254 28.2963 64.0135C 28.3294 63.9896 28.3766 63.9555 28.4373 63.9113C 28.5586 63.8229 28.7337 63.6943 28.9574 63.5272C 29.4046 63.1932 30.0464 62.7053 30.8407 62.0782C 32.4281 60.8249 34.6305 59.0113 37.1088 56.7557C 42.0398 52.2679 48.1771 45.9287 52.703 38.6899L 47.6155 35.5091C 43.5011 42.0897 37.8088 48.0058 33.0703 52.3183C 30.7138 54.463 28.6214 56.1858 27.1228 57.369C 26.374 57.9601 25.7749 58.4154 25.367 58.72C 25.1631 58.8723 25.0072 58.9868 24.9043 59.0618C 24.8528 59.0993 24.8147 59.1268 24.7904 59.1443C 24.7783 59.153 24.7697 59.1592 24.7646 59.1628C 24.7621 59.1646 24.7605 59.1658 24.7597 59.1663C 24.7594 59.1666 24.7592 59.1667 24.7593 59.1666C 24.7594 59.1666 24.7596 59.1664 24.7596 59.1664C 24.7599 59.1662 24.7603 59.166 26.5 61.61ZM -3 34.0205C -3 35.6574 -2.55937 37.3331 -1.59311 38.7908L 3.40798 35.4759C 3.15367 35.0922 3 34.5927 3 34.0205L -3 34.0205ZM 48 34.0851C 48 34.6331 47.8576 35.122 47.6155 35.5091L 52.703 38.6899C 53.5889 37.273 54 35.6648 54 34.0851L 48 34.0851ZM 45.6157 4.98442C 46.974 5.21893 48 6.4232 48 7.87285L 54 7.87285C 54 3.57484 50.942 -0.184791 46.6365 -0.928116L 45.6157 4.98442ZM 4.32916 -0.940496C 0.036502 -0.183384 -3 3.57091 -3 7.85479L 3 7.85479C 3 6.40721 4.01964 5.2067 5.37131 4.9683L 4.32916 -0.940496Z"/>
<path id="path3_stroke" d="M 11.4222 28.183L 11.1695 29.6615L 12.8665 29.9517L 12.9215 28.2309L 11.4222 28.183ZM -0.252794 27.7086L 11.1695 29.6615L 11.675 26.7044L 0.252794 24.7515L -0.252794 27.7086ZM 12.9215 28.2309L 13.8223 0.0479213L 10.8238 -0.0479213L 9.92301 28.1351L 12.9215 28.2309Z"/>
</defs>
</svg>
