<svg width="100" height="100" viewBox="0 0 100 100" version="1.1" xmlns="http://www.w3.org/2000/svg" xmlns:xlink="http://www.w3.org/1999/xlink">
<title>dossier</title>
<desc>Created using Figma</desc>
<g id="Canvas" transform="translate(-207 -741)">
<g id="dossier">
<g id="Rectangle">
<use xlink:href="#path0_fill" transform="translate(207 741)" fill="#FFFFFF"/>
</g>
<g id="Group">
<g id="Rectangle">
<mask id="mask0_outline_ins">
<use xlink:href="#path1_fill" fill="white" transform="matrix(-1 0 0 1 283.842 769)"/>
</mask>
<g mask="url(#mask0_outline_ins)">
<use xlink:href="#path2_stroke_2x" transform="matrix(-1 0 0 1 283.842 769)" fill="#20E8B6"/>
</g>
</g>
<g id="Rectangle">
<use xlink:href="#path3_fill" transform="matrix(-1 0 0 1 291 773.751)" fill="#FFFFFF"/>
<mask id="mask1_outline_ins">
<use xlink:href="#path3_fill" fill="white" transform="matrix(-1 0 0 1 291 773.751)"/>
</mask>
<g mask="url(#mask1_outline_ins)">
<use xlink:href="#path4_stroke_2x" transform="matrix(-1 0 0 1 291 773.751)" fill="#20E8B6"/>
</g>
</g>
</g>
</g>
</g>
<defs>
<path id="path0_fill" d="M 0 0L 100 0L 100 100L 0 100L 0 0Z"/>
<path id="path1_fill" d="M 0 4C 0 1.79086 1.79086 0 4 0L 56.8421 0C 59.0512 0 60.8421 1.79086 60.8421 4L 60.8421 40.4098C 60.8421 42.619 59.0512 44.4098 56.8421 44.4098L 4 44.4098C 1.79086 44.4098 0 42.619 0 40.4098L 0 4Z"/>
<path id="path2_stroke_2x" d="M 4 3L 56.8421 3L 56.8421 -3L 4 -3L 4 3ZM 57.8421 4L 57.8421 40.4098L 63.8421 40.4098L 63.8421 4L 57.8421 4ZM 56.8421 41.4098L 4 41.4098L 4 47.4098L 56.8421 47.4098L 56.8421 41.4098ZM 3 40.4098L 3 4L -3 4L -3 40.4098L 3 40.4098ZM 4 41.4098C 3.44772 41.4098 3 40.9621 3 40.4098L -3 40.4098C -3 44.2758 0.134006 47.4098 4 47.4098L 4 41.4098ZM 57.8421 40.4098C 57.8421 40.9621 57.3944 41.4098 56.8421 41.4098L 56.8421 47.4098C 60.7081 47.4098 63.8421 44.2758 63.8421 40.4098L 57.8421 40.4098ZM 56.8421 3C 57.3944 3 57.8421 3.44772 57.8421 4L 63.8421 4C 63.8421 0.134007 60.7081 -3 56.8421 -3L 56.8421 3ZM 4 -3C 0.134007 -3 -3 0.134007 -3 4L 3 4C 3 3.44772 3.44772 3 4 3L 4 -3Z"/>
<path id="path3_fill" d="M 9.6649 39.6587L 64.3224 39.6587C 66.2215 39.6587 67.6427 37.9165 67.2613 36.0561L 61.3337 7.1485C 61.0475 5.75296 59.8194 4.75112 58.3948 4.75112L 13.8684 4.75112L 13.1434 2.18447C 12.7784 0.892266 11.5991 0 10.2564 0L 3.58993 0C 1.71979 0 0.305465 1.69245 0.637635 3.53285L 6.71261 37.1916C 6.97039 38.6198 8.21359 39.6587 9.6649 39.6587Z"/>
<path id="path4_stroke_2x" d="M 6.71261 37.1916L 9.6649 36.6587L 9.6649 36.6587L 6.71261 37.1916ZM 0.637635 3.53285L -2.31466 4.06571L 0.637635 3.53285ZM 13.1434 2.18447L 16.0304 1.36894L 16.0304 1.36893L 13.1434 2.18447ZM 13.8684 4.75112L 10.9814 5.56665C 11.3464 6.85885 12.5257 7.75112 13.8684 7.75112L 13.8684 4.75112ZM 61.3337 7.1485L 64.2725 6.54588L 64.2725 6.54587L 61.3337 7.1485ZM 67.2613 36.0561L 70.2001 35.4535L 70.2001 35.4535L 67.2613 36.0561ZM 64.3224 36.6587L 9.6649 36.6587L 9.6649 42.6587L 64.3224 42.6587L 64.3224 36.6587ZM 9.6649 36.6587L 3.58993 3L -2.31466 4.06571L 3.76031 37.7244L 9.6649 36.6587ZM 3.58993 3L 10.2564 3L 10.2564 -3L 3.58993 -3L 3.58993 3ZM 10.2564 3L 10.9814 5.56665L 16.7554 3.93558L 16.0304 1.36894L 10.2564 3ZM 58.3948 7.75112L 64.3224 36.6587L 70.2001 35.4535L 64.2725 6.54588L 58.3948 7.75112ZM 13.8684 7.75112L 58.3948 7.75112L 58.3948 1.75112L 13.8684 1.75112L 13.8684 7.75112ZM 10.2564 3L 10.2564 3L 16.0304 1.36893C 15.3004 -1.21547 12.9419 -3 10.2564 -3L 10.2564 3ZM 9.6649 36.6587L 9.6649 36.6587L 3.76031 37.7244C 4.27586 40.5809 6.76227 42.6587 9.6649 42.6587L 9.6649 36.6587ZM 64.3224 42.6587C 68.1206 42.6587 70.9631 39.1742 70.2001 35.4535L 64.3224 36.6587L 64.3224 36.6587L 64.3224 42.6587ZM 64.2725 6.54587C 63.7002 3.75481 61.244 1.75112 58.3948 1.75112L 58.3948 7.75112L 58.3948 7.75112L 64.2725 6.54587ZM 3.58993 3L 3.58993 3L 3.58993 -3C -0.150351 -3 -2.979 0.384896 -2.31466 4.06571L 3.58993 3Z"/>
</defs>
</svg>
