<svg width="200" height="200" viewBox="0 0 200 200" version="1.1" xmlns="http://www.w3.org/2000/svg" xmlns:xlink="http://www.w3.org/1999/xlink">
<title>form_personnal_info</title>
<desc>Created using Figma</desc>
<g id="Canvas" transform="translate(244 -5955)">
<g id="form_personnal_info">
<g id="Rectangle">
<use xlink:href="#path0_fill" transform="translate(-244 5955)" fill="#FFFFFF"/>
</g>
<g id="Group">
<g id="Rectangle">
<mask id="mask0_outline_ins">
<use xlink:href="#path1_fill" fill="white" transform="translate(-191 6024)"/>
</mask>
<g mask="url(#mask0_outline_ins)">
<use xlink:href="#path2_stroke_2x" transform="translate(-191 6024)" fill="#20E8B6"/>
</g>
</g>
<g id="Line">
<use xlink:href="#path3_stroke" transform="translate(-142 6044)" fill="#20E8B6"/>
</g>
<g id="Line">
<use xlink:href="#path3_stroke" transform="translate(-142 6057)" fill="#20E8B6"/>
</g>
<g id="Line">
<use xlink:href="#path3_stroke" transform="translate(-142 6070)" fill="#20E8B6"/>
</g>
<g id="Ellipse">
<mask id="mask1_outline_ins">
<use xlink:href="#path4_fill" fill="white" transform="translate(-173 6036)"/>
</mask>
<g mask="url(#mask1_outline_ins)">
<use xlink:href="#path5_stroke_2x" transform="translate(-173 6036)" fill="#20E8B6"/>
</g>
</g>
<g id="Ellipse">
<mask id="mask2_outline_ins">
<use xlink:href="#path6_fill" fill="white" transform="translate(-179 6057)"/>
</mask>
<g mask="url(#mask2_outline_ins)">
<use xlink:href="#path7_stroke_2x" transform="translate(-179 6057)" fill="#20E8B6"/>
</g>
</g>
</g>
</g>
</g>
<defs>
<path id="path0_fill" d="M 0 0L 200 0L 200 200L 0 200L 0 0Z"/>
<path id="path1_fill" d="M 0 9C 0 4.02944 4.02944 0 9 0L 85 0C 89.9706 0 94 4.02944 94 9L 94 53C 94 57.9706 89.9706 62 85 62L 9 62C 4.02944 62 0 57.9706 0 53L 0 9Z"/>
<path id="path2_stroke_2x" d="M 9 5L 85 5L 85 -5L 9 -5L 9 5ZM 85 57L 9 57L 9 67L 85 67L 85 57ZM 5 53L 5 9L -5 9L -5 53L 5 53ZM 89 9L 89 53L 99 53L 99 9L 89 9ZM 9 57C 6.79086 57 5 55.2091 5 53L -5 53C -5 60.732 1.26801 67 9 67L 9 57ZM 85 67C 92.732 67 99 60.732 99 53L 89 53C 89 55.2091 87.2091 57 85 57L 85 67ZM 85 5C 87.2091 5 89 6.79086 89 9L 99 9C 99 1.26801 92.732 -5 85 -5L 85 5ZM 9 -5C 1.26801 -5 -5 1.26801 -5 9L 5 9C 5 6.79086 6.79086 5 9 5L 9 -5Z"/>
<path id="path3_stroke" d="M 0 0L 34 0L 34 -4L 0 -4L 0 0Z"/>
<path id="path4_fill" d="M 19 9.5C 19 14.7467 14.7467 19 9.5 19C 4.25329 19 0 14.7467 0 9.5C 0 4.25329 4.25329 0 9.5 0C 14.7467 0 19 4.25329 19 9.5Z"/>
<path id="path5_stroke_2x" d="M 15 9.5C 15 12.5376 12.5376 15 9.5 15L 9.5 23C 16.9558 23 23 16.9558 23 9.5L 15 9.5ZM 9.5 15C 6.46243 15 4 12.5376 4 9.5L -4 9.5C -4 16.9558 2.04416 23 9.5 23L 9.5 15ZM 4 9.5C 4 6.46243 6.46243 4 9.5 4L 9.5 -4C 2.04416 -4 -4 2.04416 -4 9.5L 4 9.5ZM 9.5 4C 12.5376 4 15 6.46243 15 9.5L 23 9.5C 23 2.04416 16.9558 -4 9.5 -4L 9.5 4Z"/>
<path id="path6_fill" d="M 31 15.5C 22.4396 15.5 0 15.5 0 15.5C 0 6.93959 6.93959 0 15.5 0C 24.0604 0 31 6.93959 31 15.5Z"/>
<path id="path7_stroke_2x" d="M 31 15.5L 31 19.5L 35 19.5L 35 15.5L 31 15.5ZM 0 15.5L -4 15.5L -4 19.5L 0 19.5L 0 15.5ZM 31 11.5C 30.9833 11.5 30.9665 11.5 30.9497 11.5C 30.9329 11.5 30.916 11.5 30.899 11.5C 30.8821 11.5 30.8651 11.5 30.8481 11.5C 30.8311 11.5 30.814 11.5 30.7968 11.5C 30.7797 11.5 30.7625 11.5 30.7453 11.5C 30.728 11.5 30.7107 11.5 30.6934 11.5C 30.676 11.5 30.6586 11.5 30.6412 11.5C 30.6238 11.5 30.6063 11.5 30.5887 11.5C 30.5712 11.5 30.5536 11.5 30.5359 11.5C 30.5183 11.5 30.5006 11.5 30.4828 11.5C 30.465 11.5 30.4472 11.5 30.4294 11.5C 30.4115 11.5 30.3936 11.5 30.3757 11.5C 30.3577 11.5 30.3397 11.5 30.3217 11.5C 30.3036 11.5 30.2855 11.5 30.2674 11.5C 30.2492 11.5 30.231 11.5 30.2128 11.5C 30.1945 11.5 30.1763 11.5 30.1579 11.5C 30.1396 11.5 30.1212 11.5 30.1027 11.5C 30.0843 11.5 30.0658 11.5 30.0473 11.5C 30.0287 11.5 30.0101 11.5 29.9915 11.5C 29.9729 11.5 29.9542 11.5 29.9355 11.5C 29.9167 11.5 29.898 11.5 29.8791 11.5C 29.8603 11.5 29.8414 11.5 29.8225 11.5C 29.8036 11.5 29.7846 11.5 29.7656 11.5C 29.7466 11.5 29.7275 11.5 29.7084 11.5C 29.6893 11.5 29.6702 11.5 29.651 11.5C 29.6318 11.5 29.6125 11.5 29.5933 11.5C 29.574 11.5 29.5546 11.5 29.5353 11.5C 29.5159 11.5 29.4964 11.5 29.477 11.5C 29.4575 11.5 29.438 11.5 29.4184 11.5C 29.3989 11.5 29.3792 11.5 29.3596 11.5C 29.3399 11.5 29.3202 11.5 29.3005 11.5C 29.2808 11.5 29.261 11.5 29.2411 11.5C 29.2213 11.5 29.2014 11.5 29.1815 11.5C 29.1616 11.5 29.1416 11.5 29.1216 11.5C 29.1016 11.5 29.0816 11.5 29.0615 11.5C 29.0414 11.5 29.0212 11.5 29.0011 11.5C 28.9809 11.5 28.9607 11.5 28.9404 11.5C 28.9201 11.5 28.8998 11.5 28.8795 11.5C 28.8591 11.5 28.8387 11.5 28.8183 11.5C 28.7978 11.5 28.7774 11.5 28.7568 11.5C 28.7363 11.5 28.7157 11.5 28.6951 11.5C 28.6745 11.5 28.6539 11.5 28.6332 11.5C 28.6125 11.5 28.5918 11.5 28.571 11.5C 28.5502 11.5 28.5294 11.5 28.5086 11.5C 28.4877 11.5 28.4668 11.5 28.4459 11.5C 28.4249 11.5 28.404 11.5 28.3829 11.5C 28.3619 11.5 28.3409 11.5 28.3198 11.5C 28.2987 11.5 28.2775 11.5 28.2564 11.5C 28.2352 11.5 28.214 11.5 28.1927 11.5C 28.1714 11.5 28.1501 11.5 28.1288 11.5C 28.1075 11.5 28.0861 11.5 28.0647 11.5C 28.0433 11.5 28.0218 11.5 28.0003 11.5C 27.9788 11.5 27.9573 11.5 27.9357 11.5C 27.9141 11.5 27.8925 11.5 27.8709 11.5C 27.8492 11.5 27.8275 11.5 27.8058 11.5C 27.7841 11.5 27.7623 11.5 27.7405 11.5C 27.7187 11.5 27.6969 11.5 27.675 11.5C 27.6531 11.5 27.6312 11.5 27.6093 11.5C 27.5873 11.5 27.5653 11.5 27.5433 11.5C 27.5213 11.5 27.4992 11.5 27.4771 11.5C 27.455 11.5 27.4329 11.5 27.4107 11.5C 27.3885 11.5 27.3663 11.5 27.3441 11.5C 27.3218 11.5 27.2996 11.5 27.2773 11.5C 27.2549 11.5 27.2326 11.5 27.2102 11.5C 27.1878 11.5 27.1654 11.5 27.1429 11.5C 27.1205 11.5 27.098 11.5 27.0754 11.5C 27.0529 11.5 27.0303 11.5 27.0077 11.5C 26.9851 11.5 26.9625 11.5 26.9398 11.5C 26.9172 11.5 26.8945 11.5 26.8717 11.5C 26.849 11.5 26.8262 11.5 26.8034 11.5C 26.7806 11.5 26.7578 11.5 26.7349 11.5C 26.712 11.5 26.6891 11.5 26.6662 11.5C 26.6432 11.5 26.6203 11.5 26.5973 11.5C 26.5742 11.5 26.5512 11.5 26.5281 11.5C 26.5051 11.5 26.482 11.5 26.4588 11.5C 26.4357 11.5 26.4125 11.5 26.3893 11.5C 26.3661 11.5 26.3429 11.5 26.3196 11.5C 26.2963 11.5 26.273 11.5 26.2497 11.5C 26.2264 11.5 26.203 11.5 26.1796 11.5C 26.1562 11.5 26.1328 11.5 26.1093 11.5C 26.0859 11.5 26.0624 11.5 26.0388 11.5C 26.0153 11.5 25.9918 11.5 25.9682 11.5C 25.9446 11.5 25.921 11.5 25.8973 11.5C 25.8737 11.5 25.85 11.5 25.8263 11.5C 25.8026 11.5 25.7789 11.5 25.7551 11.5C 25.7313 11.5 25.7076 11.5 25.6837 11.5C 25.6599 11.5 25.636 11.5 25.6122 11.5C 25.5883 11.5 25.5644 11.5 25.5404 11.5C 25.5165 11.5 25.4925 11.5 25.4685 11.5C 25.4445 11.5 25.4205 11.5 25.3964 11.5C 25.3724 11.5 25.3483 11.5 25.3242 11.5C 25.3001 11.5 25.2759 11.5 25.2517 11.5C 25.2276 11.5 25.2034 11.5 25.1791 11.5C 25.1549 11.5 25.1307 11.5 25.1064 11.5C 25.0821 11.5 25.0578 11.5 25.0334 11.5C 25.0091 11.5 24.9847 11.5 24.9604 11.5C 24.936 11.5 24.9115 11.5 24.8871 11.5C 24.8627 11.5 24.8382 11.5 24.8137 11.5C 24.7892 11.5 24.7647 11.5 24.7401 11.5C 24.7156 11.5 24.691 11.5 24.6664 11.5C 24.6418 11.5 24.6172 11.5 24.5925 11.5C 24.5678 11.5 24.5432 11.5 24.5185 11.5C 24.4938 11.5 24.469 11.5 24.4443 11.5C 24.4195 11.5 24.3947 11.5 24.3699 11.5C 24.3451 11.5 24.3203 11.5 24.2954 11.5C 24.2706 11.5 24.2457 11.5 24.2208 11.5C 24.1959 11.5 24.171 11.5 24.146 11.5C 24.1211 11.5 24.0961 11.5 24.0711 11.5C 24.0461 11.5 24.0211 11.5 23.996 11.5C 23.971 11.5 23.9459 11.5 23.9208 11.5C 23.8957 11.5 23.8706 11.5 23.8455 11.5C 23.8203 11.5 23.7952 11.5 23.77 11.5C 23.7448 11.5 23.7196 11.5 23.6944 11.5C 23.6691 11.5 23.6439 11.5 23.6186 11.5C 23.5933 11.5 23.568 11.5 23.5427 11.5C 23.5174 11.5 23.4921 11.5 23.4667 11.5C 23.4413 11.5 23.4159 11.5 23.3905 11.5C 23.3651 11.5 23.3397 11.5 23.3143 11.5C 23.2888 11.5 23.2633 11.5 23.2379 11.5C 23.2124 11.5 23.1869 11.5 23.1613 11.5C 23.1358 11.5 23.1103 11.5 23.0847 11.5C 23.0591 11.5 23.0335 11.5 23.0079 11.5C 22.9823 11.5 22.9567 11.5 22.931 11.5C 22.9054 11.5 22.8797 11.5 22.854 11.5C 22.8283 11.5 22.8026 11.5 22.7769 11.5C 22.7512 11.5 22.7254 11.5 22.6996 11.5C 22.6739 11.5 22.6481 11.5 22.6223 11.5C 22.5965 11.5 22.5707 11.5 22.5448 11.5C 22.519 11.5 22.4931 11.5 22.4673 11.5C 22.4414 11.5 22.4155 11.5 22.3896 11.5C 22.3637 11.5 22.3377 11.5 22.3118 11.5C 22.2858 11.5 22.2599 11.5 22.2339 11.5C 22.2079 11.5 22.1819 11.5 22.1559 11.5C 22.1299 11.5 22.1038 11.5 22.0778 11.5C 22.0517 11.5 22.0257 11.5 21.9996 11.5C 21.9735 11.5 21.9474 11.5 21.9213 11.5C 21.8952 11.5 21.869 11.5 21.8429 11.5C 21.8167 11.5 21.7906 11.5 21.7644 11.5C 21.7382 11.5 21.712 11.5 21.6858 11.5C 21.6596 11.5 21.6334 11.5 21.6071 11.5C 21.5809 11.5 21.5546 11.5 21.5284 11.5C 21.5021 11.5 21.4758 11.5 21.4495 11.5C 21.4232 11.5 21.3969 11.5 21.3706 11.5C 21.3443 11.5 21.3179 11.5 21.2916 11.5C 21.2652 11.5 21.2388 11.5 21.2124 11.5C 21.1861 11.5 21.1597 11.5 21.1332 11.5C 21.1068 11.5 21.0804 11.5 21.054 11.5C 21.0275 11.5 21.0011 11.5 20.9746 11.5C 20.9482 11.5 20.9217 11.5 20.8952 11.5C 20.8687 11.5 20.8422 11.5 20.8157 11.5C 20.7892 11.5 20.7626 11.5 20.7361 11.5C 20.7096 11.5 20.683 11.5 20.6564 11.5C 20.6299 11.5 20.6033 11.5 20.5767 11.5C 20.5501 11.5 20.5235 11.5 20.4969 11.5C 20.4703 11.5 20.4437 11.5 20.4171 11.5C 20.3904 11.5 20.3638 11.5 20.3371 11.5C 20.3105 11.5 20.2838 11.5 20.2572 11.5C 20.2305 11.5 20.2038 11.5 20.1771 11.5C 20.1504 11.5 20.1237 11.5 20.097 11.5C 20.0703 11.5 20.0435 11.5 20.0168 11.5C 19.9901 11.5 19.9633 11.5 19.9366 11.5C 19.9098 11.5 19.8831 11.5 19.8563 11.5C 19.8295 11.5 19.8027 11.5 19.7759 11.5C 19.7492 11.5 19.7224 11.5 19.6955 11.5C 19.6687 11.5 19.6419 11.5 19.6151 11.5C 19.5883 11.5 19.5614 11.5 19.5346 11.5C 19.5078 11.5 19.4809 11.5 19.4541 11.5C 19.4272 11.5 19.4003 11.5 19.3735 11.5C 19.3466 11.5 19.3197 11.5 19.2928 11.5C 19.2659 11.5 19.239 11.5 19.2121 11.5C 19.1852 11.5 19.1583 11.5 19.1314 11.5C 19.1045 11.5 19.0776 11.5 19.0507 11.5C 19.0237 11.5 18.9968 11.5 18.9699 11.5C 18.9429 11.5 18.916 11.5 18.889 11.5C 18.8621 11.5 18.8351 11.5 18.8081 11.5C 18.7812 11.5 18.7542 11.5 18.7272 11.5C 18.7003 11.5 18.6733 11.5 18.6463 11.5C 18.6193 11.5 18.5923 11.5 18.5653 11.5C 18.5383 11.5 18.5113 11.5 18.4843 11.5C 18.4573 11.5 18.4303 11.5 18.4033 11.5C 18.3763 11.5 18.3493 11.5 18.3223 11.5C 18.2952 11.5 18.2682 11.5 18.2412 11.5C 18.2142 11.5 18.1871 11.5 18.1601 11.5C 18.1331 11.5 18.106 11.5 18.079 11.5C 18.0519 11.5 18.0249 11.5 17.9978 11.5C 17.9708 11.5 17.9437 11.5 17.9167 11.5C 17.8896 11.5 17.8626 11.5 17.8355 11.5C 17.8085 11.5 17.7814 11.5 17.7543 11.5C 17.7273 11.5 17.7002 11.5 17.6731 11.5C 17.6461 11.5 17.619 11.5 17.5919 11.5C 17.5649 11.5 17.5378 11.5 17.5107 11.5C 17.4837 11.5 17.4566 11.5 17.4295 11.5C 17.4024 11.5 17.3754 11.5 17.3483 11.5C 17.3212 11.5 17.2941 11.5 17.267 11.5C 17.24 11.5 17.2129 11.5 17.1858 11.5C 17.1587 11.5 17.1317 11.5 17.1046 11.5C 17.0775 11.5 17.0504 11.5 17.0233 11.5C 16.9963 11.5 16.9692 11.5 16.9421 11.5C 16.915 11.5 16.888 11.5 16.8609 11.5C 16.8338 11.5 16.8067 11.5 16.7797 11.5C 16.7526 11.5 16.7255 11.5 16.6984 11.5C 16.6714 11.5 16.6443 11.5 16.6172 11.5C 16.5902 11.5 16.5631 11.5 16.536 11.5C 16.509 11.5 16.4819 11.5 16.4548 11.5C 16.4278 11.5 16.4007 11.5 16.3737 11.5C 16.3466 11.5 16.3196 11.5 16.2925 11.5C 16.2655 11.5 16.2384 11.5 16.2114 11.5C 16.1843 11.5 16.1573 11.5 16.1302 11.5C 16.1032 11.5 16.0762 11.5 16.0491 11.5C 16.0221 11.5 15.9951 11.5 15.9681 11.5C 15.941 11.5 15.914 11.5 15.887 11.5C 15.86 11.5 15.833 11.5 15.806 11.5C 15.779 11.5 15.752 11.5 15.725 11.5C 15.698 11.5 15.671 11.5 15.644 11.5C 15.617 11.5 15.59 11.5 15.563 11.5C 15.5361 11.5 15.5091 11.5 15.4821 11.5C 15.4552 11.5 15.4282 11.5 15.4012 11.5C 15.3743 11.5 15.3473 11.5 15.3204 11.5C 15.2934 11.5 15.2665 11.5 15.2396 11.5C 15.2126 11.5 15.1857 11.5 15.1588 11.5C 15.1319 11.5 15.105 11.5 15.0781 11.5C 15.0512 11.5 15.0243 11.5 14.9974 11.5C 14.9705 11.5 14.9436 11.5 14.9167 11.5C 14.8898 11.5 14.863 11.5 14.8361 11.5C 14.8093 11.5 14.7824 11.5 14.7556 11.5C 14.7287 11.5 14.7019 11.5 14.675 11.5C 14.6482 11.5 14.6214 11.5 14.5946 11.5C 14.5678 11.5 14.541 11.5 14.5142 11.5C 14.4874 11.5 14.4606 11.5 14.4338 11.5C 14.407 11.5 14.3803 11.5 14.3535 11.5C 14.3267 11.5 14.3 11.5 14.2732 11.5C 14.2465 11.5 14.2198 11.5 14.1931 11.5C 14.1663 11.5 14.1396 11.5 14.1129 11.5C 14.0862 11.5 14.0595 11.5 14.0328 11.5C 14.0062 11.5 13.9795 11.5 13.9528 11.5C 13.9262 11.5 13.8995 11.5 13.8729 11.5C 13.8462 11.5 13.8196 11.5 13.793 11.5C 13.7664 11.5 13.7398 11.5 13.7132 11.5C 13.6866 11.5 13.66 11.5 13.6334 11.5C 13.6069 11.5 13.5803 11.5 13.5538 11.5C 13.5272 11.5 13.5007 11.5 13.4742 11.5C 13.4476 11.5 13.4211 11.5 13.3946 11.5C 13.3681 11.5 13.3416 11.5 13.3152 11.5C 13.2887 11.5 13.2622 11.5 13.2358 11.5C 13.2094 11.5 13.1829 11.5 13.1565 11.5C 13.1301 11.5 13.1037 11.5 13.0773 11.5C 13.0509 11.5 13.0245 11.5 12.9981 11.5C 12.9718 11.5 12.9454 11.5 12.9191 11.5C 12.8927 11.5 12.8664 11.5 12.8401 11.5C 12.8138 11.5 12.7875 11.5 12.7612 11.5C 12.735 11.5 12.7087 11.5 12.6824 11.5C 12.6562 11.5 12.63 11.5 12.6037 11.5C 12.5775 11.5 12.5513 11.5 12.5251 11.5C 12.4989 11.5 12.4728 11.5 12.4466 11.5C 12.4204 11.5 12.3943 11.5 12.3682 11.5C 12.342 11.5 12.3159 11.5 12.2898 11.5C 12.2638 11.5 12.2377 11.5 12.2116 11.5C 12.1856 11.5 12.1595 11.5 12.1335 11.5C 12.1075 11.5 12.0814 11.5 12.0555 11.5C 12.0295 11.5 12.0035 11.5 11.9775 11.5C 11.9516 11.5 11.9256 11.5 11.8997 11.5C 11.8738 11.5 11.8479 11.5 11.822 11.5C 11.7961 11.5 11.7702 11.5 11.7444 11.5C 11.7185 11.5 11.6927 11.5 11.6669 11.5C 11.6411 11.5 11.6153 11.5 11.5895 11.5C 11.5637 11.5 11.5379 11.5 11.5122 11.5C 11.4865 11.5 11.4607 11.5 11.435 11.5C 11.4093 11.5 11.3837 11.5 11.358 11.5C 11.3323 11.5 11.3067 11.5 11.2811 11.5C 11.2554 11.5 11.2298 11.5 11.2043 11.5C 11.1787 11.5 11.1531 11.5 11.1276 11.5C 11.102 11.5 11.0765 11.5 11.051 11.5C 11.0255 11.5 11 11.5 10.9746 11.5C 10.9491 11.5 10.9237 11.5 10.8982 11.5C 10.8728 11.5 10.8474 11.5 10.8221 11.5C 10.7967 11.5 10.7713 11.5 10.746 11.5C 10.7207 11.5 10.6953 11.5 10.6701 11.5C 10.6448 11.5 10.6195 11.5 10.5943 11.5C 10.569 11.5 10.5438 11.5 10.5186 11.5C 10.4934 11.5 10.4682 11.5 10.4431 11.5C 10.4179 11.5 10.3928 11.5 10.3677 11.5C 10.3426 11.5 10.3175 11.5 10.2924 11.5C 10.2674 11.5 10.2423 11.5 10.2173 11.5C 10.1923 11.5 10.1673 11.5 10.1423 11.5C 10.1174 11.5 10.0924 11.5 10.0675 11.5C 10.0426 11.5 10.0177 11.5 9.99282 11.5C 9.96795 11.5 9.9431 11.5 9.91828 11.5C 9.89346 11.5 9.86866 11.5 9.84389 11.5C 9.81912 11.5 9.79437 11.5 9.76965 11.5C 9.74493 11.5 9.72023 11.5 9.69556 11.5C 9.67089 11.5 9.64625 11.5 9.62163 11.5C 9.59701 11.5 9.57242 11.5 9.54785 11.5C 9.52328 11.5 9.49874 11.5 9.47423 11.5C 9.44971 11.5 9.42522 11.5 9.40076 11.5C 9.3763 11.5 9.35186 11.5 9.32745 11.5C 9.30305 11.5 9.27866 11.5 9.25431 11.5C 9.22996 11.5 9.20563 11.5 9.18133 11.5C 9.15703 11.5 9.13276 11.5 9.10851 11.5C 9.08427 11.5 9.06005 11.5 9.03586 11.5C 9.01167 11.5 8.98751 11.5 8.96338 11.5C 8.93925 11.5 8.91514 11.5 8.89106 11.5C 8.86699 11.5 8.84294 11.5 8.81892 11.5C 8.7949 11.5 8.77091 11.5 8.74695 11.5C 8.72299 11.5 8.69906 11.5 8.67516 11.5C 8.65125 11.5 8.62738 11.5 8.60354 11.5C 8.57969 11.5 8.55588 11.5 8.53209 11.5C 8.50831 11.5 8.48456 11.5 8.46083 11.5C 8.43711 11.5 8.41341 11.5 8.38975 11.5C 8.36609 11.5 8.34245 11.5 8.31885 11.5C 8.29525 11.5 8.27168 11.5 8.24813 11.5C 8.22459 11.5 8.20108 11.5 8.1776 11.5C 8.15412 11.5 8.13068 11.5 8.10726 11.5C 8.08384 11.5 8.06046 11.5 8.03711 11.5C 8.01375 11.5 7.99043 11.5 7.96714 11.5C 7.94385 11.5 7.9206 11.5 7.89737 11.5C 7.87415 11.5 7.85095 11.5 7.82779 11.5C 7.80463 11.5 7.78151 11.5 7.75841 11.5C 7.73532 11.5 7.71226 11.5 7.68923 11.5C 7.6662 11.5 7.6432 11.5 7.62024 11.5C 7.59728 11.5 7.57435 11.5 7.55145 11.5C 7.52856 11.5 7.5057 11.5 7.48287 11.5C 7.46004 11.5 7.43725 11.5 7.41449 11.5C 7.39173 11.5 7.369 11.5 7.34631 11.5C 7.32362 11.5 7.30096 11.5 7.27834 11.5C 7.25572 11.5 7.23313 11.5 7.21058 11.5C 7.18803 11.5 7.16551 11.5 7.14303 11.5C 7.12055 11.5 7.0981 11.5 7.07569 11.5C 7.05328 11.5 7.03091 11.5 7.00857 11.5C 6.98623 11.5 6.96392 11.5 6.94166 11.5C 6.91939 11.5 6.89716 11.5 6.87496 11.5C 6.85277 11.5 6.83061 11.5 6.80848 11.5C 6.78636 11.5 6.76428 11.5 6.74223 11.5C 6.72018 11.5 6.69817 11.5 6.67619 11.5C 6.65422 11.5 6.63228 11.5 6.61038 11.5C 6.58848 11.5 6.56662 11.5 6.54479 11.5C 6.52297 11.5 6.50118 11.5 6.47943 11.5C 6.45768 11.5 6.43597 11.5 6.4143 11.5C 6.39262 11.5 6.37099 11.5 6.34939 11.5C 6.3278 11.5 6.30624 11.5 6.28472 11.5C 6.2632 11.5 6.24172 11.5 6.22028 11.5C 6.19884 11.5 6.17744 11.5 6.15607 11.5C 6.13471 11.5 6.11339 11.5 6.0921 11.5C 6.07082 11.5 6.04957 11.5 6.02837 11.5C 6.00717 11.5 5.986 11.5 5.96488 11.5C 5.94375 11.5 5.92267 11.5 5.90162 11.5C 5.88058 11.5 5.85958 11.5 5.83861 11.5C 5.81765 11.5 5.79673 11.5 5.77585 11.5C 5.75497 11.5 5.73413 11.5 5.71333 11.5C 5.69253 11.5 5.67177 11.5 5.65106 11.5C 5.63034 11.5 5.60966 11.5 5.58903 11.5C 5.5684 11.5 5.54781 11.5 5.52726 11.5C 5.50671 11.5 5.4862 11.5 5.46574 11.5C 5.44527 11.5 5.42485 11.5 5.40447 11.5C 5.38409 11.5 5.36375 11.5 5.34346 11.5C 5.32316 11.5 5.30291 11.5 5.2827 11.5C 5.26249 11.5 5.24233 11.5 5.22221 11.5C 5.20209 11.5 5.18201 11.5 5.16197 11.5C 5.14194 11.5 5.12195 11.5 5.102 11.5C 5.08205 11.5 5.06215 11.5 5.04229 11.5C 5.02243 11.5 5.00261 11.5 4.98284 11.5C 4.96307 11.5 4.94335 11.5 4.92366 11.5C 4.90398 11.5 4.88435 11.5 4.86475 11.5C 4.84516 11.5 4.82562 11.5 4.80611 11.5C 4.78661 11.5 4.76716 11.5 4.74775 11.5C 4.72834 11.5 4.70897 11.5 4.68965 11.5C 4.67033 11.5 4.65106 11.5 4.63183 11.5C 4.61261 11.5 4.59342 11.5 4.57429 11.5C 4.55515 11.5 4.53607 11.5 4.51702 11.5C 4.49798 11.5 4.47899 11.5 4.46004 11.5C 4.44109 11.5 4.42219 11.5 4.40334 11.5C 4.38448 11.5 4.36567 11.5 4.34691 11.5C 4.32815 11.5 4.30944 11.5 4.29078 11.5C 4.27211 11.5 4.2535 11.5 4.23493 11.5C 4.21636 11.5 4.19784 11.5 4.17937 11.5C 4.16089 11.5 4.14247 11.5 4.12409 11.5C 4.10572 11.5 4.08739 11.5 4.06911 11.5C 4.05084 11.5 4.03261 11.5 4.01443 11.5C 3.99624 11.5 3.97811 11.5 3.96003 11.5C 3.94195 11.5 3.92392 11.5 3.90593 11.5C 3.88795 11.5 3.87002 11.5 3.85213 11.5C 3.83425 11.5 3.81642 11.5 3.79863 11.5C 3.78085 11.5 3.76312 11.5 3.74543 11.5C 3.72775 11.5 3.71012 11.5 3.69254 11.5C 3.67495 11.5 3.65742 11.5 3.63994 11.5C 3.62246 11.5 3.60503 11.5 3.58765 11.5C 3.57028 11.5 3.55295 11.5 3.53567 11.5C 3.5184 11.5 3.50118 11.5 3.484 11.5C 3.46683 11.5 3.44971 11.5 3.43264 11.5C 3.41557 11.5 3.39856 11.5 3.38159 11.5C 3.36463 11.5 3.34772 11.5 3.33086 11.5C 3.314 11.5 3.2972 11.5 3.28044 11.5C 3.26369 11.5 3.24699 11.5 3.23034 11.5C 3.21369 11.5 3.1971 11.5 3.18056 11.5C 3.16402 11.5 3.14753 11.5 3.1311 11.5C 3.11466 11.5 3.09828 11.5 3.08195 11.5C 3.06563 11.5 3.04936 11.5 3.03314 11.5C 3.01692 11.5 3.00076 11.5 2.98465 11.5C 2.96854 11.5 2.95248 11.5 2.93648 11.5C 2.92048 11.5 2.90454 11.5 2.88865 11.5C 2.87276 11.5 2.85692 11.5 2.84114 11.5C 2.82536 11.5 2.80964 11.5 2.79397 11.5C 2.7783 11.5 2.76268 11.5 2.74713 11.5C 2.73157 11.5 2.71607 11.5 2.70062 11.5C 2.68517 11.5 2.66978 11.5 2.65445 11.5C 2.63912 11.5 2.62384 11.5 2.60862 11.5C 2.5934 11.5 2.57824 11.5 2.56313 11.5C 2.54802 11.5 2.53297 11.5 2.51798 11.5C 2.50299 11.5 2.48805 11.5 2.47317 11.5C 2.45829 11.5 2.44347 11.5 2.42871 11.5C 2.41395 11.5 2.39924 11.5 2.3846 11.5C 2.36995 11.5 2.35536 11.5 2.34083 11.5C 2.3263 11.5 2.31183 11.5 2.29741 11.5C 2.283 11.5 2.26864 11.5 2.25434 11.5C 2.24005 11.5 2.22581 11.5 2.21163 11.5C 2.19745 11.5 2.18333 11.5 2.16927 11.5C 2.15521 11.5 2.14121 11.5 2.12727 11.5C 2.11333 11.5 2.09945 11.5 2.08562 11.5C 2.0718 11.5 2.05804 11.5 2.04434 11.5C 2.03064 11.5 2.01699 11.5 2.00341 11.5C 1.98983 11.5 1.97631 11.5 1.96285 11.5C 1.94939 11.5 1.93599 11.5 1.92265 11.5C 1.90931 11.5 1.89604 11.5 1.88282 11.5C 1.8696 11.5 1.85645 11.5 1.84336 11.5C 1.83026 11.5 1.81723 11.5 1.80426 11.5C 1.79129 11.5 1.77838 11.5 1.76554 11.5C 1.75269 11.5 1.73991 11.5 1.72718 11.5C 1.71446 11.5 1.7018 11.5 1.68921 11.5C 1.67661 11.5 1.66407 11.5 1.6516 11.5C 1.63913 11.5 1.62672 11.5 1.61438 11.5C 1.60203 11.5 1.58975 11.5 1.57753 11.5C 1.56531 11.5 1.55316 11.5 1.54106 11.5C 1.52897 11.5 1.51694 11.5 1.50498 11.5C 1.49302 11.5 1.48111 11.5 1.46928 11.5C 1.45744 11.5 1.44567 11.5 1.43396 11.5C 1.42226 11.5 1.41061 11.5 1.39904 11.5C 1.38746 11.5 1.37594 11.5 1.3645 11.5C 1.35305 11.5 1.34166 11.5 1.33035 11.5C 1.31903 11.5 1.30778 11.5 1.29659 11.5C 1.2854 11.5 1.27428 11.5 1.26322 11.5C 1.25217 11.5 1.24118 11.5 1.23026 11.5C 1.21933 11.5 1.20847 11.5 1.19768 11.5C 1.18689 11.5 1.17617 11.5 1.16551 11.5C 1.15485 11.5 1.14426 11.5 1.13373 11.5C 1.12321 11.5 1.11275 11.5 1.10236 11.5C 1.09197 11.5 1.08165 11.5 1.07139 11.5C 1.06114 11.5 1.05095 11.5 1.04083 11.5C 1.03071 11.5 1.02066 11.5 1.01067 11.5C 1.00069 11.5 0.990769 11.5 0.980921 11.5C 0.971072 11.5 0.961292 11.5 0.95158 11.5C 0.941869 11.5 0.932226 11.5 0.922651 11.5C 0.913077 11.5 0.903572 11.5 0.894135 11.5C 0.884699 11.5 0.875332 11.5 0.866034 11.5C 0.856736 11.5 0.847507 11.5 0.838348 11.5C 0.82919 11.5 0.8201 11.5 0.811081 11.5C 0.802062 11.5 0.793112 11.5 0.784233 11.5C 0.775354 11.5 0.766545 11.5 0.757806 11.5C 0.749067 11.5 0.740399 11.5 0.731802 11.5C 0.723204 11.5 0.714677 11.5 0.706222 11.5C 0.697766 11.5 0.689381 11.5 0.681068 11.5C 0.672754 11.5 0.664512 11.5 0.656341 11.5C 0.64817 11.5 0.640071 11.5 0.632044 11.5C 0.624016 11.5 0.616061 11.5 0.608177 11.5C 0.600294 11.5 0.592482 11.5 0.584743 11.5C 0.577004 11.5 0.569337 11.5 0.561743 11.5C 0.554149 11.5 0.546627 11.5 0.539179 11.5C 0.53173 11.5 0.524354 11.5 0.517052 11.5C 0.509749 11.5 0.502519 11.5 0.495363 11.5C 0.488207 11.5 0.481125 11.5 0.474116 11.5C 0.467107 11.5 0.460171 11.5 0.45331 11.5C 0.446449 11.5 0.439662 11.5 0.432949 11.5C 0.426235 11.5 0.419597 11.5 0.413032 11.5C 0.406468 11.5 0.399978 11.5 0.393563 11.5C 0.387148 11.5 0.380808 11.5 0.374542 11.5C 0.368277 11.5 0.362087 11.5 0.355972 11.5C 0.349857 11.5 0.343818 11.5 0.337854 11.5C 0.33189 11.5 0.326001 11.5 0.320189 11.5C 0.314376 11.5 0.30864 11.5 0.302979 11.5C 0.297319 11.5 0.291734 11.5 0.286226 11.5C 0.280718 11.5 0.275286 11.5 0.269932 11.5C 0.264577 11.5 0.259298 11.5 0.254097 11.5C 0.248896 11.5 0.243771 11.5 0.238724 11.5C 0.233677 11.5 0.228707 11.5 0.223815 11.5C 0.218922 11.5 0.214107 11.5 0.20937 11.5C 0.204633 11.5 0.199973 11.5 0.195392 11.5C 0.19081 11.5 0.186307 11.5 0.181882 11.5C 0.177456 11.5 0.17311 11.5 0.168841 11.5C 0.164573 11.5 0.160383 11.5 0.156272 11.5C 0.152161 11.5 0.148129 11.5 0.144176 11.5C 0.140224 11.5 0.13635 11.5 0.132555 11.5C 0.128761 11.5 0.125046 11.5 0.12141 11.5C 0.117775 11.5 0.114219 11.5 0.110743 11.5C 0.107267 11.5 0.103871 11.5 0.100556 11.5C 0.0972397 11.5 0.0940042 11.5 0.090849 11.5C 0.0876939 11.5 0.0846192 11.5 0.0816253 11.5C 0.0786314 11.5 0.0757182 11.5 0.072886 11.5C 0.0700538 11.5 0.0673026 11.5 0.0646326 11.5C 0.0619627 11.5 0.059374 11.5 0.0568669 11.5C 0.0543598 11.5 0.0519342 11.5 0.0495904 11.5C 0.0472467 11.5 0.0449847 11.5 0.0428048 11.5C 0.0406249 11.5 0.0385271 11.5 0.0365117 11.5C 0.0344963 11.5 0.0325632 11.5 0.0307127 11.5C 0.0288623 11.5 0.0270944 11.5 0.0254095 11.5C 0.0237245 11.5 0.0221225 11.5 0.0206036 11.5C 0.0190847 11.5 0.017649 11.5 0.0162967 11.5C 0.0149444 11.5 0.0136756 11.5 0.0124904 11.5C 0.0113053 11.5 0.0102038 11.5 0.00918638 11.5C 0.00816891 11.5 0.00723543 11.5 0.00638619 11.5C 0.00553696 11.5 0.00477197 11.5 0.00409149 11.5C 0.00341102 11.5 0.00281507 11.5 0.0023039 11.5C 0.00179273 11.5 0.00136636 11.5 0.00102504 11.5C 0.000683719 11.5 0.00042746 11.5 0.00025653 11.5C 8.56002e-05 11.5 0 11.5 0 15.5C 0 19.5 8.56002e-05 19.5 0.00025653 19.5C 0.00042746 19.5 0.000683719 19.5 0.00102504 19.5C 0.00136636 19.5 0.00179273 19.5 0.0023039 19.5C 0.00281507 19.5 0.00341102 19.5 0.00409149 19.5C 0.00477197 19.5 0.00553696 19.5 0.00638619 19.5C 0.00723543 19.5 0.00816891 19.5 0.00918638 19.5C 0.0102038 19.5 0.0113053 19.5 0.0124904 19.5C 0.0136756 19.5 0.0149444 19.5 0.0162967 19.5C 0.017649 19.5 0.0190847 19.5 0.0206036 19.5C 0.0221225 19.5 0.0237245 19.5 0.0254095 19.5C 0.0270944 19.5 0.0288623 19.5 0.0307127 19.5C 0.0325632 19.5 0.0344963 19.5 0.0365117 19.5C 0.0385271 19.5 0.0406249 19.5 0.0428048 19.5C 0.0449847 19.5 0.0472467 19.5 0.0495904 19.5C 0.0519342 19.5 0.0543598 19.5 0.0568669 19.5C 0.059374 19.5 0.0619627 19.5 0.0646326 19.5C 0.0673026 19.5 0.0700538 19.5 0.072886 19.5C 0.0757182 19.5 0.0786314 19.5 0.0816253 19.5C 0.0846192 19.5 0.0876939 19.5 0.090849 19.5C 0.0940042 19.5 0.0972397 19.5 0.100556 19.5C 0.103871 19.5 0.107267 19.5 0.110743 19.5C 0.114219 19.5 0.117775 19.5 0.12141 19.5C 0.125046 19.5 0.128761 19.5 0.132555 19.5C 0.13635 19.5 0.140224 19.5 0.144176 19.5C 0.148129 19.5 0.152161 19.5 0.156272 19.5C 0.160383 19.5 0.164573 19.5 0.168841 19.5C 0.17311 19.5 0.177456 19.5 0.181882 19.5C 0.186307 19.5 0.19081 19.5 0.195392 19.5C 0.199973 19.5 0.204633 19.5 0.20937 19.5C 0.214107 19.5 0.218922 19.5 0.223815 19.5C 0.228707 19.5 0.233677 19.5 0.238724 19.5C 0.243771 19.5 0.248896 19.5 0.254097 19.5C 0.259298 19.5 0.264577 19.5 0.269932 19.5C 0.275286 19.5 0.280718 19.5 0.286226 19.5C 0.291734 19.5 0.297319 19.5 0.302979 19.5C 0.30864 19.5 0.314376 19.5 0.320189 19.5C 0.326001 19.5 0.33189 19.5 0.337854 19.5C 0.343818 19.5 0.349857 19.5 0.355972 19.5C 0.362087 19.5 0.368277 19.5 0.374542 19.5C 0.380808 19.5 0.387148 19.5 0.393563 19.5C 0.399978 19.5 0.406468 19.5 0.413032 19.5C 0.419597 19.5 0.426235 19.5 0.432949 19.5C 0.439662 19.5 0.446449 19.5 0.45331 19.5C 0.460171 19.5 0.467107 19.5 0.474116 19.5C 0.481125 19.5 0.488207 19.5 0.495363 19.5C 0.502519 19.5 0.509749 19.5 0.517052 19.5C 0.524354 19.5 0.53173 19.5 0.539179 19.5C 0.546627 19.5 0.554149 19.5 0.561743 19.5C 0.569337 19.5 0.577004 19.5 0.584743 19.5C 0.592482 19.5 0.600294 19.5 0.608177 19.5C 0.616061 19.5 0.624016 19.5 0.632044 19.5C 0.640071 19.5 0.64817 19.5 0.656341 19.5C 0.664512 19.5 0.672754 19.5 0.681068 19.5C 0.689381 19.5 0.697766 19.5 0.706222 19.5C 0.714677 19.5 0.723204 19.5 0.731802 19.5C 0.740399 19.5 0.749067 19.5 0.757806 19.5C 0.766545 19.5 0.775354 19.5 0.784233 19.5C 0.793112 19.5 0.802062 19.5 0.811081 19.5C 0.8201 19.5 0.82919 19.5 0.838348 19.5C 0.847507 19.5 0.856736 19.5 0.866034 19.5C 0.875332 19.5 0.884699 19.5 0.894135 19.5C 0.903572 19.5 0.913077 19.5 0.922651 19.5C 0.932226 19.5 0.941869 19.5 0.95158 19.5C 0.961292 19.5 0.971072 19.5 0.980921 19.5C 0.990769 19.5 1.00069 19.5 1.01067 19.5C 1.02066 19.5 1.03071 19.5 1.04083 19.5C 1.05095 19.5 1.06114 19.5 1.07139 19.5C 1.08165 19.5 1.09197 19.5 1.10236 19.5C 1.11275 19.5 1.12321 19.5 1.13373 19.5C 1.14426 19.5 1.15485 19.5 1.16551 19.5C 1.17617 19.5 1.18689 19.5 1.19768 19.5C 1.20847 19.5 1.21933 19.5 1.23026 19.5C 1.24118 19.5 1.25217 19.5 1.26322 19.5C 1.27428 19.5 1.2854 19.5 1.29659 19.5C 1.30778 19.5 1.31903 19.5 1.33035 19.5C 1.34166 19.5 1.35305 19.5 1.3645 19.5C 1.37594 19.5 1.38746 19.5 1.39904 19.5C 1.41061 19.5 1.42226 19.5 1.43396 19.5C 1.44567 19.5 1.45744 19.5 1.46928 19.5C 1.48111 19.5 1.49302 19.5 1.50498 19.5C 1.51694 19.5 1.52897 19.5 1.54106 19.5C 1.55316 19.5 1.56531 19.5 1.57753 19.5C 1.58975 19.5 1.60203 19.5 1.61438 19.5C 1.62672 19.5 1.63913 19.5 1.6516 19.5C 1.66407 19.5 1.67661 19.5 1.68921 19.5C 1.7018 19.5 1.71446 19.5 1.72718 19.5C 1.73991 19.5 1.75269 19.5 1.76554 19.5C 1.77838 19.5 1.79129 19.5 1.80426 19.5C 1.81723 19.5 1.83026 19.5 1.84336 19.5C 1.85645 19.5 1.8696 19.5 1.88282 19.5C 1.89604 19.5 1.90931 19.5 1.92265 19.5C 1.93599 19.5 1.94939 19.5 1.96285 19.5C 1.97631 19.5 1.98983 19.5 2.00341 19.5C 2.01699 19.5 2.03064 19.5 2.04434 19.5C 2.05804 19.5 2.0718 19.5 2.08562 19.5C 2.09945 19.5 2.11333 19.5 2.12727 19.5C 2.14121 19.5 2.15521 19.5 2.16927 19.5C 2.18333 19.5 2.19745 19.5 2.21163 19.5C 2.22581 19.5 2.24005 19.5 2.25434 19.5C 2.26864 19.5 2.283 19.5 2.29741 19.5C 2.31183 19.5 2.3263 19.5 2.34083 19.5C 2.35536 19.5 2.36995 19.5 2.3846 19.5C 2.39924 19.5 2.41395 19.5 2.42871 19.5C 2.44347 19.5 2.45829 19.5 2.47317 19.5C 2.48805 19.5 2.50299 19.5 2.51798 19.5C 2.53297 19.5 2.54802 19.5 2.56313 19.5C 2.57824 19.5 2.5934 19.5 2.60862 19.5C 2.62384 19.5 2.63912 19.5 2.65445 19.5C 2.66978 19.5 2.68517 19.5 2.70062 19.5C 2.71607 19.5 2.73157 19.5 2.74713 19.5C 2.76268 19.5 2.7783 19.5 2.79397 19.5C 2.80964 19.5 2.82536 19.5 2.84114 19.5C 2.85692 19.5 2.87276 19.5 2.88865 19.5C 2.90454 19.5 2.92048 19.5 2.93648 19.5C 2.95248 19.5 2.96854 19.5 2.98465 19.5C 3.00076 19.5 3.01692 19.5 3.03314 19.5C 3.04936 19.5 3.06563 19.5 3.08195 19.5C 3.09828 19.5 3.11466 19.5 3.1311 19.5C 3.14753 19.5 3.16402 19.5 3.18056 19.5C 3.1971 19.5 3.21369 19.5 3.23034 19.5C 3.24699 19.5 3.26369 19.5 3.28044 19.5C 3.2972 19.5 3.314 19.5 3.33086 19.5C 3.34772 19.5 3.36463 19.5 3.38159 19.5C 3.39856 19.5 3.41557 19.5 3.43264 19.5C 3.44971 19.5 3.46683 19.5 3.484 19.5C 3.50118 19.5 3.5184 19.5 3.53567 19.5C 3.55295 19.5 3.57028 19.5 3.58765 19.5C 3.60503 19.5 3.62246 19.5 3.63994 19.5C 3.65742 19.5 3.67495 19.5 3.69254 19.5C 3.71012 19.5 3.72775 19.5 3.74543 19.5C 3.76312 19.5 3.78085 19.5 3.79863 19.5C 3.81642 19.5 3.83425 19.5 3.85213 19.5C 3.87002 19.5 3.88795 19.5 3.90593 19.5C 3.92392 19.5 3.94195 19.5 3.96003 19.5C 3.97811 19.5 3.99624 19.5 4.01443 19.5C 4.03261 19.5 4.05084 19.5 4.06911 19.5C 4.08739 19.5 4.10572 19.5 4.12409 19.5C 4.14247 19.5 4.16089 19.5 4.17937 19.5C 4.19784 19.5 4.21636 19.5 4.23493 19.5C 4.2535 19.5 4.27211 19.5 4.29078 19.5C 4.30944 19.5 4.32815 19.5 4.34691 19.5C 4.36567 19.5 4.38448 19.5 4.40334 19.5C 4.42219 19.5 4.44109 19.5 4.46004 19.5C 4.47899 19.5 4.49798 19.5 4.51702 19.5C 4.53607 19.5 4.55515 19.5 4.57429 19.5C 4.59342 19.5 4.61261 19.5 4.63183 19.5C 4.65106 19.5 4.67033 19.5 4.68965 19.5C 4.70897 19.5 4.72834 19.5 4.74775 19.5C 4.76716 19.5 4.78661 19.5 4.80611 19.5C 4.82562 19.5 4.84516 19.5 4.86475 19.5C 4.88435 19.5 4.90398 19.5 4.92366 19.5C 4.94335 19.5 4.96307 19.5 4.98284 19.5C 5.00261 19.5 5.02243 19.5 5.04229 19.5C 5.06215 19.5 5.08205 19.5 5.102 19.5C 5.12195 19.5 5.14194 19.5 5.16197 19.5C 5.18201 19.5 5.20209 19.5 5.22221 19.5C 5.24233 19.5 5.26249 19.5 5.2827 19.5C 5.30291 19.5 5.32316 19.5 5.34346 19.5C 5.36375 19.5 5.38409 19.5 5.40447 19.5C 5.42485 19.5 5.44527 19.5 5.46574 19.5C 5.4862 19.5 5.50671 19.5 5.52726 19.5C 5.54781 19.5 5.5684 19.5 5.58903 19.5C 5.60966 19.5 5.63034 19.5 5.65106 19.5C 5.67177 19.5 5.69253 19.5 5.71333 19.5C 5.73413 19.5 5.75497 19.5 5.77585 19.5C 5.79673 19.5 5.81765 19.5 5.83861 19.5C 5.85958 19.5 5.88058 19.5 5.90162 19.5C 5.92267 19.5 5.94375 19.5 5.96488 19.5C 5.986 19.5 6.00717 19.5 6.02837 19.5C 6.04957 19.5 6.07082 19.5 6.0921 19.5C 6.11339 19.5 6.13471 19.5 6.15607 19.5C 6.17744 19.5 6.19884 19.5 6.22028 19.5C 6.24172 19.5 6.2632 19.5 6.28472 19.5C 6.30624 19.5 6.3278 19.5 6.34939 19.5C 6.37099 19.5 6.39262 19.5 6.4143 19.5C 6.43597 19.5 6.45768 19.5 6.47943 19.5C 6.50118 19.5 6.52297 19.5 6.54479 19.5C 6.56662 19.5 6.58848 19.5 6.61038 19.5C 6.63228 19.5 6.65422 19.5 6.67619 19.5C 6.69817 19.5 6.72018 19.5 6.74223 19.5C 6.76428 19.5 6.78636 19.5 6.80848 19.5C 6.83061 19.5 6.85277 19.5 6.87496 19.5C 6.89716 19.5 6.91939 19.5 6.94166 19.5C 6.96392 19.5 6.98623 19.5 7.00857 19.5C 7.03091 19.5 7.05328 19.5 7.07569 19.5C 7.0981 19.5 7.12055 19.5 7.14303 19.5C 7.16551 19.5 7.18803 19.5 7.21058 19.5C 7.23313 19.5 7.25572 19.5 7.27834 19.5C 7.30096 19.5 7.32362 19.5 7.34631 19.5C 7.369 19.5 7.39173 19.5 7.41449 19.5C 7.43725 19.5 7.46004 19.5 7.48287 19.5C 7.5057 19.5 7.52856 19.5 7.55145 19.5C 7.57435 19.5 7.59728 19.5 7.62024 19.5C 7.6432 19.5 7.6662 19.5 7.68923 19.5C 7.71226 19.5 7.73532 19.5 7.75841 19.5C 7.78151 19.5 7.80463 19.5 7.82779 19.5C 7.85095 19.5 7.87415 19.5 7.89737 19.5C 7.9206 19.5 7.94385 19.5 7.96714 19.5C 7.99043 19.5 8.01375 19.5 8.03711 19.5C 8.06046 19.5 8.08384 19.5 8.10726 19.5C 8.13068 19.5 8.15412 19.5 8.1776 19.5C 8.20108 19.5 8.22459 19.5 8.24813 19.5C 8.27168 19.5 8.29525 19.5 8.31885 19.5C 8.34245 19.5 8.36609 19.5 8.38975 19.5C 8.41341 19.5 8.43711 19.5 8.46083 19.5C 8.48456 19.5 8.50831 19.5 8.53209 19.5C 8.55588 19.5 8.57969 19.5 8.60354 19.5C 8.62738 19.5 8.65125 19.5 8.67516 19.5C 8.69906 19.5 8.72299 19.5 8.74695 19.5C 8.77091 19.5 8.7949 19.5 8.81892 19.5C 8.84294 19.5 8.86699 19.5 8.89106 19.5C 8.91514 19.5 8.93925 19.5 8.96338 19.5C 8.98751 19.5 9.01167 19.5 9.03586 19.5C 9.06005 19.5 9.08427 19.5 9.10851 19.5C 9.13276 19.5 9.15703 19.5 9.18133 19.5C 9.20563 19.5 9.22996 19.5 9.25431 19.5C 9.27866 19.5 9.30305 19.5 9.32745 19.5C 9.35186 19.5 9.3763 19.5 9.40076 19.5C 9.42522 19.5 9.44971 19.5 9.47423 19.5C 9.49874 19.5 9.52328 19.5 9.54785 19.5C 9.57242 19.5 9.59701 19.5 9.62163 19.5C 9.64625 19.5 9.67089 19.5 9.69556 19.5C 9.72023 19.5 9.74493 19.5 9.76965 19.5C 9.79437 19.5 9.81912 19.5 9.84389 19.5C 9.86866 19.5 9.89346 19.5 9.91828 19.5C 9.9431 19.5 9.96795 19.5 9.99282 19.5C 10.0177 19.5 10.0426 19.5 10.0675 19.5C 10.0924 19.5 10.1174 19.5 10.1423 19.5C 10.1673 19.5 10.1923 19.5 10.2173 19.5C 10.2423 19.5 10.2674 19.5 10.2924 19.5C 10.3175 19.5 10.3426 19.5 10.3677 19.5C 10.3928 19.5 10.4179 19.5 10.4431 19.5C 10.4682 19.5 10.4934 19.5 10.5186 19.5C 10.5438 19.5 10.569 19.5 10.5943 19.5C 10.6195 19.5 10.6448 19.5 10.6701 19.5C 10.6953 19.5 10.7207 19.5 10.746 19.5C 10.7713 19.5 10.7967 19.5 10.8221 19.5C 10.8474 19.5 10.8728 19.5 10.8982 19.5C 10.9237 19.5 10.9491 19.5 10.9746 19.5C 11 19.5 11.0255 19.5 11.051 19.5C 11.0765 19.5 11.102 19.5 11.1276 19.5C 11.1531 19.5 11.1787 19.5 11.2043 19.5C 11.2298 19.5 11.2554 19.5 11.2811 19.5C 11.3067 19.5 11.3323 19.5 11.358 19.5C 11.3837 19.5 11.4093 19.5 11.435 19.5C 11.4607 19.5 11.4865 19.5 11.5122 19.5C 11.5379 19.5 11.5637 19.5 11.5895 19.5C 11.6153 19.5 11.6411 19.5 11.6669 19.5C 11.6927 19.5 11.7185 19.5 11.7444 19.5C 11.7702 19.5 11.7961 19.5 11.822 19.5C 11.8479 19.5 11.8738 19.5 11.8997 19.5C 11.9256 19.5 11.9516 19.5 11.9775 19.5C 12.0035 19.5 12.0295 19.5 12.0555 19.5C 12.0814 19.5 12.1075 19.5 12.1335 19.5C 12.1595 19.5 12.1856 19.5 12.2116 19.5C 12.2377 19.5 12.2638 19.5 12.2898 19.5C 12.3159 19.5 12.342 19.5 12.3682 19.5C 12.3943 19.5 12.4204 19.5 12.4466 19.5C 12.4728 19.5 12.4989 19.5 12.5251 19.5C 12.5513 19.5 12.5775 19.5 12.6037 19.5C 12.63 19.5 12.6562 19.5 12.6824 19.5C 12.7087 19.5 12.735 19.5 12.7612 19.5C 12.7875 19.5 12.8138 19.5 12.8401 19.5C 12.8664 19.5 12.8927 19.5 12.9191 19.5C 12.9454 19.5 12.9718 19.5 12.9981 19.5C 13.0245 19.5 13.0509 19.5 13.0773 19.5C 13.1037 19.5 13.1301 19.5 13.1565 19.5C 13.1829 19.5 13.2094 19.5 13.2358 19.5C 13.2622 19.5 13.2887 19.5 13.3152 19.5C 13.3416 19.5 13.3681 19.5 13.3946 19.5C 13.4211 19.5 13.4476 19.5 13.4742 19.5C 13.5007 19.5 13.5272 19.5 13.5538 19.5C 13.5803 19.5 13.6069 19.5 13.6334 19.5C 13.66 19.5 13.6866 19.5 13.7132 19.5C 13.7398 19.5 13.7664 19.5 13.793 19.5C 13.8196 19.5 13.8462 19.5 13.8729 19.5C 13.8995 19.5 13.9262 19.5 13.9528 19.5C 13.9795 19.5 14.0062 19.5 14.0328 19.5C 14.0595 19.5 14.0862 19.5 14.1129 19.5C 14.1396 19.5 14.1663 19.5 14.1931 19.5C 14.2198 19.5 14.2465 19.5 14.2732 19.5C 14.3 19.5 14.3267 19.5 14.3535 19.5C 14.3803 19.5 14.407 19.5 14.4338 19.5C 14.4606 19.5 14.4874 19.5 14.5142 19.5C 14.541 19.5 14.5678 19.5 14.5946 19.5C 14.6214 19.5 14.6482 19.5 14.675 19.5C 14.7019 19.5 14.7287 19.5 14.7556 19.5C 14.7824 19.5 14.8093 19.5 14.8361 19.5C 14.863 19.5 14.8898 19.5 14.9167 19.5C 14.9436 19.5 14.9705 19.5 14.9974 19.5C 15.0243 19.5 15.0512 19.5 15.0781 19.5C 15.105 19.5 15.1319 19.5 15.1588 19.5C 15.1857 19.5 15.2126 19.5 15.2396 19.5C 15.2665 19.5 15.2934 19.5 15.3204 19.5C 15.3473 19.5 15.3743 19.5 15.4012 19.5C 15.4282 19.5 15.4552 19.5 15.4821 19.5C 15.5091 19.5 15.5361 19.5 15.563 19.5C 15.59 19.5 15.617 19.5 15.644 19.5C 15.671 19.5 15.698 19.5 15.725 19.5C 15.752 19.5 15.779 19.5 15.806 19.5C 15.833 19.5 15.86 19.5 15.887 19.5C 15.914 19.5 15.941 19.5 15.9681 19.5C 15.9951 19.5 16.0221 19.5 16.0491 19.5C 16.0762 19.5 16.1032 19.5 16.1302 19.5C 16.1573 19.5 16.1843 19.5 16.2114 19.5C 16.2384 19.5 16.2655 19.5 16.2925 19.5C 16.3196 19.5 16.3466 19.5 16.3737 19.5C 16.4007 19.5 16.4278 19.5 16.4548 19.5C 16.4819 19.5 16.509 19.5 16.536 19.5C 16.5631 19.5 16.5902 19.5 16.6172 19.5C 16.6443 19.5 16.6714 19.5 16.6984 19.5C 16.7255 19.5 16.7526 19.5 16.7797 19.5C 16.8067 19.5 16.8338 19.5 16.8609 19.5C 16.888 19.5 16.915 19.5 16.9421 19.5C 16.9692 19.5 16.9963 19.5 17.0233 19.5C 17.0504 19.5 17.0775 19.5 17.1046 19.5C 17.1317 19.5 17.1587 19.5 17.1858 19.5C 17.2129 19.5 17.24 19.5 17.267 19.5C 17.2941 19.5 17.3212 19.5 17.3483 19.5C 17.3754 19.5 17.4024 19.5 17.4295 19.5C 17.4566 19.5 17.4837 19.5 17.5107 19.5C 17.5378 19.5 17.5649 19.5 17.5919 19.5C 17.619 19.5 17.6461 19.5 17.6731 19.5C 17.7002 19.5 17.7273 19.5 17.7543 19.5C 17.7814 19.5 17.8085 19.5 17.8355 19.5C 17.8626 19.5 17.8896 19.5 17.9167 19.5C 17.9437 19.5 17.9708 19.5 17.9978 19.5C 18.0249 19.5 18.0519 19.5 18.079 19.5C 18.106 19.5 18.1331 19.5 18.1601 19.5C 18.1871 19.5 18.2142 19.5 18.2412 19.5C 18.2682 19.5 18.2952 19.5 18.3223 19.5C 18.3493 19.5 18.3763 19.5 18.4033 19.5C 18.4303 19.5 18.4573 19.5 18.4843 19.5C 18.5113 19.5 18.5383 19.5 18.5653 19.5C 18.5923 19.5 18.6193 19.5 18.6463 19.5C 18.6733 19.5 18.7003 19.5 18.7272 19.5C 18.7542 19.5 18.7812 19.5 18.8081 19.5C 18.8351 19.5 18.8621 19.5 18.889 19.5C 18.916 19.5 18.9429 19.5 18.9699 19.5C 18.9968 19.5 19.0237 19.5 19.0507 19.5C 19.0776 19.5 19.1045 19.5 19.1314 19.5C 19.1583 19.5 19.1852 19.5 19.2121 19.5C 19.239 19.5 19.2659 19.5 19.2928 19.5C 19.3197 19.5 19.3466 19.5 19.3735 19.5C 19.4003 19.5 19.4272 19.5 19.4541 19.5C 19.4809 19.5 19.5078 19.5 19.5346 19.5C 19.5614 19.5 19.5883 19.5 19.6151 19.5C 19.6419 19.5 19.6687 19.5 19.6955 19.5C 19.7224 19.5 19.7492 19.5 19.7759 19.5C 19.8027 19.5 19.8295 19.5 19.8563 19.5C 19.8831 19.5 19.9098 19.5 19.9366 19.5C 19.9633 19.5 19.9901 19.5 20.0168 19.5C 20.0435 19.5 20.0703 19.5 20.097 19.5C 20.1237 19.5 20.1504 19.5 20.1771 19.5C 20.2038 19.5 20.2305 19.5 20.2572 19.5C 20.2838 19.5 20.3105 19.5 20.3371 19.5C 20.3638 19.5 20.3904 19.5 20.4171 19.5C 20.4437 19.5 20.4703 19.5 20.4969 19.5C 20.5235 19.5 20.5501 19.5 20.5767 19.5C 20.6033 19.5 20.6299 19.5 20.6564 19.5C 20.683 19.5 20.7096 19.5 20.7361 19.5C 20.7626 19.5 20.7892 19.5 20.8157 19.5C 20.8422 19.5 20.8687 19.5 20.8952 19.5C 20.9217 19.5 20.9482 19.5 20.9746 19.5C 21.0011 19.5 21.0275 19.5 21.054 19.5C 21.0804 19.5 21.1068 19.5 21.1332 19.5C 21.1597 19.5 21.1861 19.5 21.2124 19.5C 21.2388 19.5 21.2652 19.5 21.2916 19.5C 21.3179 19.5 21.3443 19.5 21.3706 19.5C 21.3969 19.5 21.4232 19.5 21.4495 19.5C 21.4758 19.5 21.5021 19.5 21.5284 19.5C 21.5546 19.5 21.5809 19.5 21.6071 19.5C 21.6334 19.5 21.6596 19.5 21.6858 19.5C 21.712 19.5 21.7382 19.5 21.7644 19.5C 21.7906 19.5 21.8167 19.5 21.8429 19.5C 21.869 19.5 21.8952 19.5 21.9213 19.5C 21.9474 19.5 21.9735 19.5 21.9996 19.5C 22.0257 19.5 22.0517 19.5 22.0778 19.5C 22.1038 19.5 22.1299 19.5 22.1559 19.5C 22.1819 19.5 22.2079 19.5 22.2339 19.5C 22.2599 19.5 22.2858 19.5 22.3118 19.5C 22.3377 19.5 22.3637 19.5 22.3896 19.5C 22.4155 19.5 22.4414 19.5 22.4673 19.5C 22.4931 19.5 22.519 19.5 22.5448 19.5C 22.5707 19.5 22.5965 19.5 22.6223 19.5C 22.6481 19.5 22.6739 19.5 22.6996 19.5C 22.7254 19.5 22.7512 19.5 22.7769 19.5C 22.8026 19.5 22.8283 19.5 22.854 19.5C 22.8797 19.5 22.9054 19.5 22.931 19.5C 22.9567 19.5 22.9823 19.5 23.0079 19.5C 23.0335 19.5 23.0591 19.5 23.0847 19.5C 23.1103 19.5 23.1358 19.5 23.1613 19.5C 23.1869 19.5 23.2124 19.5 23.2379 19.5C 23.2633 19.5 23.2888 19.5 23.3143 19.5C 23.3397 19.5 23.3651 19.5 23.3905 19.5C 23.4159 19.5 23.4413 19.5 23.4667 19.5C 23.4921 19.5 23.5174 19.5 23.5427 19.5C 23.568 19.5 23.5933 19.5 23.6186 19.5C 23.6439 19.5 23.6691 19.5 23.6944 19.5C 23.7196 19.5 23.7448 19.5 23.77 19.5C 23.7952 19.5 23.8203 19.5 23.8455 19.5C 23.8706 19.5 23.8957 19.5 23.9208 19.5C 23.9459 19.5 23.971 19.5 23.996 19.5C 24.0211 19.5 24.0461 19.5 24.0711 19.5C 24.0961 19.5 24.1211 19.5 24.146 19.5C 24.171 19.5 24.1959 19.5 24.2208 19.5C 24.2457 19.5 24.2706 19.5 24.2954 19.5C 24.3203 19.5 24.3451 19.5 24.3699 19.5C 24.3947 19.5 24.4195 19.5 24.4443 19.5C 24.469 19.5 24.4938 19.5 24.5185 19.5C 24.5432 19.5 24.5678 19.5 24.5925 19.5C 24.6172 19.5 24.6418 19.5 24.6664 19.5C 24.691 19.5 24.7156 19.5 24.7401 19.5C 24.7647 19.5 24.7892 19.5 24.8137 19.5C 24.8382 19.5 24.8627 19.5 24.8871 19.5C 24.9115 19.5 24.936 19.5 24.9604 19.5C 24.9847 19.5 25.0091 19.5 25.0334 19.5C 25.0578 19.5 25.0821 19.5 25.1064 19.5C 25.1307 19.5 25.1549 19.5 25.1791 19.5C 25.2034 19.5 25.2276 19.5 25.2517 19.5C 25.2759 19.5 25.3001 19.5 25.3242 19.5C 25.3483 19.5 25.3724 19.5 25.3964 19.5C 25.4205 19.5 25.4445 19.5 25.4685 19.5C 25.4925 19.5 25.5165 19.5 25.5404 19.5C 25.5644 19.5 25.5883 19.5 25.6122 19.5C 25.636 19.5 25.6599 19.5 25.6837 19.5C 25.7076 19.5 25.7313 19.5 25.7551 19.5C 25.7789 19.5 25.8026 19.5 25.8263 19.5C 25.85 19.5 25.8737 19.5 25.8973 19.5C 25.921 19.5 25.9446 19.5 25.9682 19.5C 25.9918 19.5 26.0153 19.5 26.0388 19.5C 26.0624 19.5 26.0859 19.5 26.1093 19.5C 26.1328 19.5 26.1562 19.5 26.1796 19.5C 26.203 19.5 26.2264 19.5 26.2497 19.5C 26.273 19.5 26.2963 19.5 26.3196 19.5C 26.3429 19.5 26.3661 19.5 26.3893 19.5C 26.4125 19.5 26.4357 19.5 26.4588 19.5C 26.482 19.5 26.5051 19.5 26.5281 19.5C 26.5512 19.5 26.5742 19.5 26.5973 19.5C 26.6203 19.5 26.6432 19.5 26.6662 19.5C 26.6891 19.5 26.712 19.5 26.7349 19.5C 26.7578 19.5 26.7806 19.5 26.8034 19.5C 26.8262 19.5 26.849 19.5 26.8717 19.5C 26.8945 19.5 26.9172 19.5 26.9398 19.5C 26.9625 19.5 26.9851 19.5 27.0077 19.5C 27.0303 19.5 27.0529 19.5 27.0754 19.5C 27.098 19.5 27.1205 19.5 27.1429 19.5C 27.1654 19.5 27.1878 19.5 27.2102 19.5C 27.2326 19.5 27.2549 19.5 27.2773 19.5C 27.2996 19.5 27.3218 19.5 27.3441 19.5C 27.3663 19.5 27.3885 19.5 27.4107 19.5C 27.4329 19.5 27.455 19.5 27.4771 19.5C 27.4992 19.5 27.5213 19.5 27.5433 19.5C 27.5653 19.5 27.5873 19.5 27.6093 19.5C 27.6312 19.5 27.6531 19.5 27.675 19.5C 27.6969 19.5 27.7187 19.5 27.7405 19.5C 27.7623 19.5 27.7841 19.5 27.8058 19.5C 27.8275 19.5 27.8492 19.5 27.8709 19.5C 27.8925 19.5 27.9141 19.5 27.9357 19.5C 27.9573 19.5 27.9788 19.5 28.0003 19.5C 28.0218 19.5 28.0433 19.5 28.0647 19.5C 28.0861 19.5 28.1075 19.5 28.1288 19.5C 28.1501 19.5 28.1714 19.5 28.1927 19.5C 28.214 19.5 28.2352 19.5 28.2564 19.5C 28.2775 19.5 28.2987 19.5 28.3198 19.5C 28.3409 19.5 28.3619 19.5 28.3829 19.5C 28.404 19.5 28.4249 19.5 28.4459 19.5C 28.4668 19.5 28.4877 19.5 28.5086 19.5C 28.5294 19.5 28.5502 19.5 28.571 19.5C 28.5918 19.5 28.6125 19.5 28.6332 19.5C 28.6539 19.5 28.6745 19.5 28.6951 19.5C 28.7157 19.5 28.7363 19.5 28.7568 19.5C 28.7774 19.5 28.7978 19.5 28.8183 19.5C 28.8387 19.5 28.8591 19.5 28.8795 19.5C 28.8998 19.5 28.9201 19.5 28.9404 19.5C 28.9607 19.5 28.9809 19.5 29.0011 19.5C 29.0212 19.5 29.0414 19.5 29.0615 19.5C 29.0816 19.5 29.1016 19.5 29.1216 19.5C 29.1416 19.5 29.1616 19.5 29.1815 19.5C 29.2014 19.5 29.2213 19.5 29.2411 19.5C 29.261 19.5 29.2808 19.5 29.3005 19.5C 29.3202 19.5 29.3399 19.5 29.3596 19.5C 29.3792 19.5 29.3989 19.5 29.4184 19.5C 29.438 19.5 29.4575 19.5 29.477 19.5C 29.4964 19.5 29.5159 19.5 29.5353 19.5C 29.5546 19.5 29.574 19.5 29.5933 19.5C 29.6125 19.5 29.6318 19.5 29.651 19.5C 29.6702 19.5 29.6893 19.5 29.7084 19.5C 29.7275 19.5 29.7466 19.5 29.7656 19.5C 29.7846 19.5 29.8036 19.5 29.8225 19.5C 29.8414 19.5 29.8603 19.5 29.8791 19.5C 29.898 19.5 29.9167 19.5 29.9355 19.5C 29.9542 19.5 29.9729 19.5 29.9915 19.5C 30.0101 19.5 30.0287 19.5 30.0473 19.5C 30.0658 19.5 30.0843 19.5 30.1027 19.5C 30.1212 19.5 30.1396 19.5 30.1579 19.5C 30.1763 19.5 30.1945 19.5 30.2128 19.5C 30.231 19.5 30.2492 19.5 30.2674 19.5C 30.2855 19.5 30.3036 19.5 30.3217 19.5C 30.3397 19.5 30.3577 19.5 30.3757 19.5C 30.3936 19.5 30.4115 19.5 30.4294 19.5C 30.4472 19.5 30.465 19.5 30.4828 19.5C 30.5006 19.5 30.5183 19.5 30.5359 19.5C 30.5536 19.5 30.5712 19.5 30.5887 19.5C 30.6063 19.5 30.6238 19.5 30.6412 19.5C 30.6586 19.5 30.676 19.5 30.6934 19.5C 30.7107 19.5 30.728 19.5 30.7453 19.5C 30.7625 19.5 30.7797 19.5 30.7968 19.5C 30.814 19.5 30.8311 19.5 30.8481 19.5C 30.8651 19.5 30.8821 19.5 30.899 19.5C 30.916 19.5 30.9329 19.5 30.9497 19.5C 30.9665 19.5 30.9833 19.5 31 19.5L 31 11.5ZM 4 15.5C 4 9.14873 9.14873 4 15.5 4L 15.5 -4C 4.73045 -4 -4 4.73045 -4 15.5L 4 15.5ZM 15.5 4C 21.8513 4 27 9.14873 27 15.5L 35 15.5C 35 4.73045 26.2696 -4 15.5 -4L 15.5 4Z"/>
</defs>
</svg>
