<svg width="200" height="200" viewBox="0 0 200 200" version="1.1" xmlns="http://www.w3.org/2000/svg" xmlns:xlink="http://www.w3.org/1999/xlink">
<title>form_bedrooms</title>
<desc>Created using Figma</desc>
<g id="Canvas" transform="translate(1904 -5955)">
<g id="form_bedrooms">
<g id="Rectangle">
<use xlink:href="#path0_fill" transform="translate(-1904 5955)" fill="#FFFFFF"/>
</g>
<g id="Rectangle 2">
<use xlink:href="#path1_stroke" transform="translate(-1844 6017)" fill="#20E8B6"/>
</g>
</g>
</g>
<defs>
<path id="path0_fill" d="M 0 0L 200 0L 200 200L 0 200L 0 0Z"/>
<path id="path1_stroke" d="M 11.0219 0L 11.0219 -2.5L 8.5219 -2.5L 8.5219 0L 11.0219 0ZM 68.8869 0L 71.3869 0L 71.3869 -2.5L 68.8869 -2.5L 68.8869 0ZM 0 46.292L -2.23607 45.1739L -2.5 45.7018L -2.5 46.292L 0 46.292ZM 79.3577 46.292L 81.8577 46.292L 81.8577 45.7284L 81.6159 45.2193L 79.3577 46.292ZM 20.9416 13.7774L 20.9416 11.2774L 18.4416 11.2774L 18.4416 13.7774L 20.9416 13.7774ZM 58.4161 13.7774L 60.9161 13.7774L 60.9161 11.2774L 58.4161 11.2774L 58.4161 13.7774ZM 58.4161 30.8613L 58.4161 33.3613L 60.9161 33.3613L 60.9161 30.8613L 58.4161 30.8613ZM 20.9416 30.8613L 18.4416 30.8613L 18.4416 33.3613L 20.9416 33.3613L 20.9416 30.8613ZM 11.0219 2.5L 68.8869 2.5L 68.8869 -2.5L 11.0219 -2.5L 11.0219 2.5ZM 66.3869 0L 66.3869 24.2482L 71.3869 24.2482L 71.3869 0L 66.3869 0ZM 13.5219 24.2482L 13.5219 0L 8.5219 0L 8.5219 24.2482L 13.5219 24.2482ZM 8.78583 23.1301L -2.23607 45.1739L 2.23607 47.41L 13.258 25.3662L 8.78583 23.1301ZM 0 48.792L 79.3577 48.792L 79.3577 43.792L 0 43.792L 0 48.792ZM 81.6159 45.2193L 71.1451 23.1755L 66.6287 25.3208L 77.0995 47.3646L 81.6159 45.2193ZM -2.5 46.292L -2.5 60.896L 2.5 60.896L 2.5 46.292L -2.5 46.292ZM -2.5 60.896L -2.5 75.5L 2.5 75.5L 2.5 60.896L -2.5 60.896ZM 76.8577 46.292L 76.8577 61.7226L 81.8577 61.7226L 81.8577 46.292L 76.8577 46.292ZM 76.8577 61.7226L 76.8577 75.5L 81.8577 75.5L 81.8577 61.7226L 76.8577 61.7226ZM -0.0260403 63.3958L 79.3316 64.2225L 79.3837 59.2228L 0.0260403 58.3961L -0.0260403 63.3958ZM 20.9416 21.7482L 11.0219 21.7482L 11.0219 26.7482L 20.9416 26.7482L 20.9416 21.7482ZM 23.4416 24.2482L 23.4416 13.7774L 18.4416 13.7774L 18.4416 24.2482L 23.4416 24.2482ZM 23.4416 30.8613L 23.4416 24.2482L 18.4416 24.2482L 18.4416 30.8613L 23.4416 30.8613ZM 20.9416 16.2774L 39.6788 16.2774L 39.6788 11.2774L 20.9416 11.2774L 20.9416 16.2774ZM 39.6788 16.2774L 58.4161 16.2774L 58.4161 11.2774L 39.6788 11.2774L 39.6788 16.2774ZM 58.4161 28.3613L 39.6788 28.3613L 39.6788 33.3613L 58.4161 33.3613L 58.4161 28.3613ZM 39.6788 28.3613L 20.9416 28.3613L 20.9416 33.3613L 39.6788 33.3613L 39.6788 28.3613ZM 37.1788 13.7774L 37.1788 30.8613L 42.1788 30.8613L 42.1788 13.7774L 37.1788 13.7774ZM 55.9161 13.7774L 55.9161 24.2482L 60.9161 24.2482L 60.9161 13.7774L 55.9161 13.7774ZM 55.9161 24.2482L 55.9161 30.8613L 60.9161 30.8613L 60.9161 24.2482L 55.9161 24.2482ZM 68.8869 21.7482L 58.4161 21.7482L 58.4161 26.7482L 68.8869 26.7482L 68.8869 21.7482Z"/>
</defs>
</svg>
