<svg width="200" height="200" viewBox="0 0 200 200" version="1.1" xmlns="http://www.w3.org/2000/svg" xmlns:xlink="http://www.w3.org/1999/xlink">
<title>form_phone</title>
<desc>Created using Figma</desc>
<g id="Canvas" transform="translate(464 -5955)">
<g id="form_phone">
<g id="Rectangle">
<use xlink:href="#path0_fill" transform="translate(-464 5955)" fill="#FFFFFF"/>
</g>
<g id="phone">
<mask id="mask0_outline_ins">
<use xlink:href="#path1_fill" fill="white" transform="translate(-406 6014)"/>
</mask>
<g mask="url(#mask0_outline_ins)">
<use xlink:href="#path2_stroke_2x" transform="translate(-406 6014)" fill="#20E8B6"/>
</g>
</g>
</g>
</g>
<defs>
<path id="path0_fill" d="M 0 0L 200 0L 200 200L 0 200L 0 0Z"/>
<path id="path1_fill" d="M 20.6571 0L 8.47118 0C 3.87313 0 0.207249 3.90241 0.605398 8.48318C 5.06124 59.7485 22.0764 72.2654 70.0394 80.6138C 74.5976 81.4072 78.8427 78.0932 79.247 73.4842L 80.3484 60.9282C 80.7154 56.7439 77.7841 52.9884 73.6359 52.3284L 62.654 50.5813C 60.336 50.2125 57.9729 50.8804 56.1908 52.4079L 52.6299 55.4601C 50.1374 57.5965 46.5599 58.0489 43.7563 56.3412C 38.9102 53.3895 34.2135 49.5778 26.0817 41.0219C 22.9842 37.7628 23.3044 32.578 26.7073 29.6392L 28.137 28.4044C 30.2285 26.5981 31.2396 23.8403 30.8114 21.1101L 28.5604 6.76026C 27.9499 2.86821 24.5967 0 20.6571 0Z"/>
<path id="path2_stroke_2x" d="M 28.5604 6.76026L 33.5 5.98542L 33.5 5.98542L 28.5604 6.76026ZM 30.8114 21.1101L 25.8718 21.8849L 25.8718 21.8849L 30.8114 21.1101ZM 28.137 28.4044L 24.8689 24.6203L 24.8689 24.6203L 28.137 28.4044ZM 26.7073 29.6392L 29.9754 33.4233L 29.9754 33.4233L 26.7073 29.6392ZM 26.0817 41.0219L 22.4575 44.4665L 22.4575 44.4665L 26.0817 41.0219ZM 43.7563 56.3412L 41.1553 60.6114L 41.1553 60.6114L 43.7563 56.3412ZM 52.6299 55.4601L 49.3759 51.6638L 49.3759 51.6638L 52.6299 55.4601ZM 56.1908 52.4079L 52.9368 48.6116L 52.9368 48.6116L 56.1908 52.4079ZM 62.654 50.5813L 61.8684 55.5192L 61.8684 55.5192L 62.654 50.5813ZM 73.6359 52.3284L 74.4215 47.3905L 74.4215 47.3905L 73.6359 52.3284ZM 80.3484 60.9282L 75.3675 60.4912L 75.3675 60.4912L 80.3484 60.9282ZM 79.247 73.4842L 74.2661 73.0472L 79.247 73.4842ZM 0.605398 8.48318L 5.58662 8.05023L 0.605398 8.48318ZM 70.0394 80.6138L 70.8968 75.6878L 70.8968 75.6878L 70.0394 80.6138ZM 8.47118 5L 20.6571 5L 20.6571 -5L 8.47118 -5L 8.47118 5ZM 23.6208 7.5351L 25.8718 21.8849L 35.751 20.3353L 33.5 5.98542L 23.6208 7.5351ZM 24.8689 24.6203L 23.4392 25.8551L 29.9754 33.4233L 31.4051 32.1885L 24.8689 24.6203ZM 22.4575 44.4665C 30.7461 53.1874 35.787 57.3417 41.1553 60.6114L 46.3573 52.071C 42.0334 49.4373 37.6809 45.9682 29.7059 37.5773L 22.4575 44.4665ZM 55.8838 59.2564L 59.4447 56.2042L 52.9368 48.6116L 49.3759 51.6638L 55.8838 59.2564ZM 61.8684 55.5192L 72.8504 57.2663L 74.4215 47.3905L 63.4396 45.6434L 61.8684 55.5192ZM 75.3675 60.4912L 74.2661 73.0472L 84.2279 73.9211L 85.3293 61.3651L 75.3675 60.4912ZM -4.37582 8.91614C -2.11854 34.8866 3.39073 52.3491 15.5091 64.2149C 27.5057 75.9615 45.1424 81.3554 69.182 85.5397L 70.8968 75.6878C 46.9734 71.5237 32.121 66.485 22.5053 57.0697C 13.0114 47.7737 7.78518 33.3451 5.58662 8.05023L -4.37582 8.91614ZM 72.8503 57.2663C 74.4059 57.5138 75.5052 58.9222 75.3675 60.4912L 85.3293 61.3651C 85.9257 54.5657 81.1622 48.4629 74.4215 47.3905L 72.8503 57.2663ZM 59.4447 56.2042C 60.113 55.6314 60.9992 55.3809 61.8684 55.5192L 63.4396 45.6434C 59.6728 45.0441 55.8328 46.1294 52.9368 48.6116L 59.4447 56.2042ZM 41.1553 60.6114C 45.9865 63.5541 51.913 62.66 55.8838 59.2564L 49.3759 51.6638C 48.3618 52.533 47.1334 52.5437 46.3573 52.071L 41.1553 60.6114ZM 23.4392 25.8551C 17.9329 30.6105 17.3415 39.0836 22.4575 44.4665L 29.7059 37.5774C 28.6269 36.442 28.6759 34.5456 29.9754 33.4233L 23.4392 25.8551ZM 25.8718 21.8849C 26.0324 22.9087 25.6532 23.9429 24.8689 24.6203L 31.4051 32.1885C 34.8038 29.2533 36.4469 24.7718 35.751 20.3353L 25.8718 21.8849ZM 74.2661 73.0472C 74.1137 74.7847 72.5248 75.9712 70.8968 75.6878L 69.182 85.5397C 76.6705 86.8432 83.5717 81.4018 84.2279 73.9211L 74.2661 73.0472ZM 20.6571 5C 22.1344 5 23.3919 6.07558 23.6208 7.5351L 33.5 5.98542C 32.5079 -0.339158 27.059 -5 20.6571 -5L 20.6571 5ZM 8.47118 -5C 1.0167 -5 -5.0344 1.33907 -4.37582 8.91614L 5.58662 8.05023C 5.4489 6.46574 6.72956 5 8.47118 5L 8.47118 -5Z"/>
</defs>
</svg>
