<svg width="200" height="200" viewBox="0 0 200 200" version="1.1" xmlns="http://www.w3.org/2000/svg" xmlns:xlink="http://www.w3.org/1999/xlink">
<title>form_bathrooms</title>
<desc>Created using Figma</desc>
<g id="Canvas" transform="translate(1684 -5955)">
<g id="form_bathrooms">
<g id="Rectangle">
<use xlink:href="#path0_fill" transform="translate(-1684 5955)" fill="#FFFFFF"/>
</g>
<g id="Group 2">
<g id="Vector">
<use xlink:href="#path1_stroke" transform="translate(-1623 6058.6)" fill="#20E8B6"/>
</g>
<g id="Group">
<g id="Vector">
<use xlink:href="#path2_stroke" transform="translate(-1604.46 6084.74)" fill="#20E8B6"/>
</g>
<g id="Vector">
<use xlink:href="#path2_stroke" transform="translate(-1565.14 6084.74)" fill="#20E8B6"/>
</g>
</g>
<g id="Vector">
<use xlink:href="#path3_stroke" transform="translate(-1569 6017)" fill="#20E8B6"/>
</g>
<g id="Vector">
<use xlink:href="#path4_fill" transform="matrix(0.835546 0.549421 -0.549421 0.835546 -1572.67 6011.75)" fill="#FFFFFF"/>
<use xlink:href="#path5_stroke" transform="matrix(0.835546 0.549421 -0.549421 0.835546 -1572.67 6011.75)" fill="#20E8B6"/>
</g>
<g id="Rectangle">
<use xlink:href="#path6_stroke" transform="translate(-1617 6059)" fill="#20E8B6"/>
</g>
</g>
</g>
</g>
<defs>
<path id="path0_fill" d="M 0 0L 200 0L 200 200L 0 200L 0 0Z"/>
<path id="path1_stroke" d="M 0 2.5L 78.6383 2.5L 78.6383 -2.5L 0 -2.5L 0 2.5Z"/>
<path id="path2_stroke" d="M 2.5 8.26276L 2.5 0L -2.5 0L -2.5 8.26276L 2.5 8.26276Z"/>
<path id="path3_stroke" d="M 19.5 39.5L 19.5 1.84615L 14.5 1.84615L 14.5 39.5L 19.5 39.5ZM 19.5 1.84615C 19.5 -0.356039 17.8097 -2.5 15.3 -2.5L 15.3 2.5C 15.009 2.5 14.7853 2.36696 14.663 2.2342C 14.544 2.1049 14.5 1.96128 14.5 1.84615L 19.5 1.84615ZM 15.3 -2.5L 1.7 -2.5L 1.7 2.5L 15.3 2.5L 15.3 -2.5ZM 1.7 -2.5C -0.809719 -2.5 -2.5 -0.356039 -2.5 1.84615L 2.5 1.84615C 2.5 1.96128 2.45605 2.1049 2.33698 2.2342C 2.21473 2.36696 1.99104 2.5 1.7 2.5L 1.7 -2.5ZM -2.5 1.84615L -2.5 9.23077L 2.5 9.23077L 2.5 1.84615L -2.5 1.84615Z"/>
<path id="path4_fill" d="M 0 9.69344C 0 4.3399 3.66746 0 8.19149 0C 12.7155 0 16.383 4.3399 16.383 9.69344L 0 9.69344Z"/>
<path id="path5_stroke" d="M 0 9.69344L -2.5 9.69344L -2.5 12.1934L 0 12.1934L 0 9.69344ZM 16.383 9.69344L 16.383 12.1934L 18.883 12.1934L 18.883 9.69344L 16.383 9.69344ZM 2.5 9.69344C 2.5 5.30959 5.42612 2.5 8.19149 2.5L 8.19149 -2.5C 1.90879 -2.5 -2.5 3.37021 -2.5 9.69344L 2.5 9.69344ZM 8.19149 2.5C 10.9569 2.5 13.883 5.30959 13.883 9.69344L 18.883 9.69344C 18.883 3.37021 14.4742 -2.5 8.19149 -2.5L 8.19149 2.5ZM 16.383 7.19344L 0 7.19344L 0 12.1934L 16.383 12.1934L 16.383 7.19344Z"/>
<path id="path6_stroke" d="M 0 0L 0 -2.5L -3.20194 -2.5L -2.42536 0.606339L 0 0ZM 65 0L 67.4 0.7L 68.3333 -2.5L 65 -2.5L 65 0ZM 58 24L 58 26.5L 59.875 26.5L 60.4 24.7L 58 24ZM 6 24L 3.57464 24.6063L 4.04806 26.5L 6 26.5L 6 24ZM 0 2.5L 65 2.5L 65 -2.5L 0 -2.5L 0 2.5ZM 62.6 -0.7L 55.6 23.3L 60.4 24.7L 67.4 0.7L 62.6 -0.7ZM 58 21.5L 6 21.5L 6 26.5L 58 26.5L 58 21.5ZM 8.42536 23.3937L 2.42536 -0.606339L -2.42536 0.606339L 3.57464 24.6063L 8.42536 23.3937Z"/>
</defs>
</svg>
