<svg width="200" height="200" viewBox="0 0 200 200" version="1.1" xmlns="http://www.w3.org/2000/svg" xmlns:xlink="http://www.w3.org/1999/xlink">
<title>form_land_size</title>
<desc>Created using Figma</desc>
<g id="Canvas" transform="translate(2345 -5958)">
<g id="form_land_size">
<g id="Rectangle">
<use xlink:href="#path0_fill" transform="translate(-2345 5958)" fill="#FFFFFF"/>
</g>
<g id="Group">
<g id="Rectangle">
<use xlink:href="#path1_stroke" transform="translate(-2285 6018)" fill="#20E8B6"/>
</g>
<g id="Polygon">
<use xlink:href="#path2_fill" transform="translate(-2275 6029)" fill="#FFFFFF"/>
<use xlink:href="#path3_stroke" transform="translate(-2275 6029)" fill="#20E8B6"/>
</g>
<g id="Ellipse">
<use xlink:href="#path4_fill" transform="translate(-2267 6036)" fill="#20E8B6"/>
</g>
</g>
</g>
</g>
<defs>
<path id="path0_fill" d="M 0 0L 200 0L 200 200L 0 200L 0 0Z"/>
<path id="path1_stroke" d="M 0 0L 0 -2.5L -2.5 -2.5L -2.5 0L 0 0ZM 80 0L 82.5 0L 82.5 -2.5L 80 -2.5L 80 0ZM 80 80L 80 82.5L 82.5 82.5L 82.5 80L 80 80ZM 0 80L -2.5 80L -2.5 82.5L 0 82.5L 0 80ZM 0 2.5L 40 2.5L 40 -2.5L 0 -2.5L 0 2.5ZM 40 2.5L 80 2.5L 80 -2.5L 40 -2.5L 40 2.5ZM 80 77.5L 40 77.5L 40 82.5L 80 82.5L 80 77.5ZM 40 77.5L 0 77.5L 0 82.5L 40 82.5L 40 77.5ZM 37.5 0L 37.5 80L 42.5 80L 42.5 0L 37.5 0ZM 2.5 80L 2.5 40L -2.5 40L -2.5 80L 2.5 80ZM 2.5 40L 2.5 0L -2.5 0L -2.5 40L 2.5 40ZM 77.5 0L 77.5 40L 82.5 40L 82.5 0L 77.5 0ZM 77.5 40L 77.5 80L 82.5 80L 82.5 40L 77.5 40ZM 0 42.5L 80 42.5L 80 37.5L 0 37.5L 0 42.5Z"/>
<path id="path2_fill" d="M 11.6052 31.38L 22.9051 12.1397C 23.2105 -4.04658 0 -4.04657 7.83625e-11 12.1397L 11.6052 31.38Z"/>
<path id="path3_stroke" d="M 11.6052 31.38L 9.46452 32.6712L 11.6339 36.2678L 13.761 32.6461L 11.6052 31.38ZM 22.9051 12.1397L 25.0608 13.4058L 25.3923 12.8413L 25.4047 12.1869L 22.9051 12.1397ZM 7.83625e-11 12.1397L -2.5 12.1397L -2.5 12.8353L -2.14073 13.431L 7.83625e-11 12.1397ZM 13.761 32.6461L 25.0608 13.4058L 20.7494 10.8737L 9.44953 30.1139L 13.761 32.6461ZM 25.4047 12.1869C 25.4931 7.5006 23.8618 3.76917 21.1755 1.22112C 18.5277 -1.29045 15.0167 -2.5 11.5671 -2.5C 8.11713 -2.5 4.59684 -1.29083 1.9175 1.20596C -0.799158 3.73753 -2.5 7.45321 -2.5 12.1397L 2.5 12.1397C 2.5 8.73309 3.70047 6.3789 5.32623 4.8639C 6.98933 3.31412 9.25257 2.5 11.5671 2.5C 13.8819 2.5 16.1163 3.31373 17.7345 4.84874C 19.3143 6.34726 20.4698 8.68569 20.4055 12.0926L 25.4047 12.1869ZM -2.14073 13.431L 9.46452 32.6712L 13.746 30.0888L 2.14073 10.8485L -2.14073 13.431Z"/>
<path id="path4_fill" d="M 7 3.5C 7 5.433 5.433 7 3.5 7C 1.567 7 0 5.433 0 3.5C 0 1.567 1.567 0 3.5 0C 5.433 0 7 1.567 7 3.5Z"/>
</defs>
</svg>
