<svg width="86" height="90" viewBox="0 0 86 90" version="1.1" xmlns="http://www.w3.org/2000/svg" xmlns:xlink="http://www.w3.org/1999/xlink">
<title>free</title>
<desc>Created using Figma</desc>
<g id="Canvas" transform="translate(59 -603)">
<g id="free">
<g id="Vector">
<use xlink:href="#path0_fill" transform="translate(-58.355 603)" fill="#20E8B6"/>
</g>
</g>
</g>
<defs>
<path id="path0_fill" d="M 81.837 24.907L 58.804 24.907C 63.007 23.262 66.968 20.964 69.182 17.77C 71.036 15.095 71.536 12.095 70.667 8.853C 69.268 3.641 64.527 0 59.137 0C 58.097 0 57.055 0.138 56.04 0.409C 48.984 2.301 44.617 12.289 42.355 19.382C 40.094 12.289 35.726 2.301 28.669 0.409C 27.656 0.138 26.614 0 25.574 0C 20.183 0 15.441 3.641 14.042 8.854C 13.173 12.095 13.673 15.095 15.528 17.77C 17.741 20.963 21.703 23.262 25.906 24.907L 2.872 24.907C 1.288 24.907 -1.90735e-08 26.196 -1.90735e-08 27.78L -1.90735e-08 42.945C -1.90735e-08 44.529 1.288 45.819 2.872 45.819L 6.222 45.819L 6.222 87.129C 6.222 88.713 7.51 90.001 9.094 90.001L 75.617 90.001C 77.201 90.001 78.489 88.713 78.489 87.129L 78.489 45.819L 81.84 45.819C 83.424 45.819 84.711 44.529 84.711 42.945L 84.711 27.78C 84.71 26.196 83.421 24.907 81.837 24.907ZM 57.033 4.108C 57.723 3.923 58.43 3.83 59.137 3.83C 62.796 3.83 66.018 6.304 66.968 9.846C 67.54 11.979 67.235 13.856 66.034 15.587C 62.366 20.882 51.208 23.593 44.847 24.573C 46.634 17.705 50.927 5.746 57.033 4.108ZM 18.674 15.587C 17.474 13.856 17.168 11.978 17.739 9.847C 18.69 6.304 21.911 3.83 25.573 3.83C 26.279 3.83 26.987 3.924 27.677 4.108C 33.781 5.746 38.074 17.705 39.859 24.573C 33.501 23.593 22.342 20.882 18.674 15.587ZM 31.9 86.17L 10.05 86.17L 10.05 45.818L 31.9 45.818L 31.9 86.17ZM 31.9 41.988L 3.829 41.988L 3.829 28.737L 31.9 28.737L 31.9 41.988ZM 48.98 86.17L 35.73 86.17L 35.73 45.818L 48.98 45.818L 48.98 86.17ZM 48.98 41.988L 35.73 41.988L 35.73 28.737L 48.98 28.737L 48.98 41.988ZM 74.66 86.17L 52.81 86.17L 52.81 45.818L 74.66 45.818L 74.66 86.17ZM 80.88 41.988L 52.81 41.988L 52.81 28.737L 80.88 28.737L 80.88 41.988Z"/>
</defs>
</svg>
