<svg width="100" height="100" viewBox="0 0 100 100" version="1.1" xmlns="http://www.w3.org/2000/svg" xmlns:xlink="http://www.w3.org/1999/xlink">
<title>free</title>
<desc>Created using Figma</desc>
<g id="Canvas" transform="translate(-35 -773)">
<g id="free">
<g id="Rectangle">
<use xlink:href="#path0_fill" transform="translate(35 773)" fill="#FFFFFF"/>
</g>
<g id="Rectangle 2">
<mask id="mask0_outline_ins">
<use xlink:href="#path1_fill" fill="white" transform="translate(56 796)"/>
</mask>
<g mask="url(#mask0_outline_ins)">
<use xlink:href="#path2_stroke_2x" transform="translate(56 796)" fill="#20E8B6"/>
</g>
</g>
<g id="Rectangle 2.1">
<use xlink:href="#path3_fill" transform="translate(49 796)" fill="#FFFFFF"/>
<mask id="mask1_outline_ins">
<use xlink:href="#path3_fill" fill="white" transform="translate(49 796)"/>
</mask>
<g mask="url(#mask1_outline_ins)">
<use xlink:href="#path4_stroke_2x" transform="translate(49 796)" fill="#20E8B6"/>
</g>
</g>
<g id="Rectangle 3">
<use xlink:href="#path5_fill" transform="translate(81 807)" fill="#FFFFFF"/>
</g>
<g id="Union">
<use xlink:href="#path6_fill" transform="translate(56 795.976)" fill="#20E8B6"/>
</g>
</g>
</g>
<defs>
<path id="path0_fill" d="M 0 0L 100 0L 100 100L 0 100L 0 0Z"/>
<path id="path1_fill" d="M 0 5C 0 2.23858 2.23858 0 5 0L 53 0C 55.7614 0 58 2.23858 58 5L 58 53C 58 55.7614 55.7614 58 53 58L 5 58C 2.23858 58 0 55.7614 0 53L 0 5Z"/>
<path id="path2_stroke_2x" d="M 5 4L 53 4L 53 -4L 5 -4L 5 4ZM 54 5L 54 53L 62 53L 62 5L 54 5ZM 53 54L 5 54L 5 62L 53 62L 53 54ZM 4 53L 4 5L -4 5L -4 53L 4 53ZM 5 54C 4.44772 54 4 53.5523 4 53L -4 53C -4 57.9706 0.0294373 62 5 62L 5 54ZM 54 53C 54 53.5523 53.5523 54 53 54L 53 62C 57.9706 62 62 57.9706 62 53L 54 53ZM 53 4C 53.5523 4 54 4.44772 54 5L 62 5C 62 0.0294373 57.9706 -4 53 -4L 53 4ZM 5 -4C 0.0294373 -4 -4 0.0294373 -4 5L 4 5C 4 4.44772 4.44772 4 5 4L 5 -4Z"/>
<path id="path3_fill" d="M 0 5C 0 2.23858 2.23858 0 5 0L 67 0C 69.7614 0 72 2.23858 72 5L 72 11C 72 13.7614 69.7614 16 67 16L 5 16C 2.23858 16 0 13.7614 0 11L 0 5Z"/>
<path id="path4_stroke_2x" d="M 5 4L 67 4L 67 -4L 5 -4L 5 4ZM 68 5L 68 11L 76 11L 76 5L 68 5ZM 67 12L 5 12L 5 20L 67 20L 67 12ZM 4 11L 4 5L -4 5L -4 11L 4 11ZM 5 12C 4.44772 12 4 11.5523 4 11L -4 11C -4 15.9706 0.0294373 20 5 20L 5 12ZM 68 11C 68 11.5523 67.5523 12 67 12L 67 20C 71.9706 20 76 15.9706 76 11L 68 11ZM 67 4C 67.5523 4 68 4.44772 68 5L 76 5C 76 0.0294373 71.9706 -4 67 -4L 67 4ZM 5 -4C 0.0294373 -4 -4 0.0294373 -4 5L 4 5C 4 4.44772 4.44772 4 5 4L 5 -4Z"/>
<path id="path5_fill" d="M 0 0L 8 0L 8 12L 0 12L 0 0Z"/>
<path id="path6_fill" fill-rule="evenodd" d="M 21.0238 21.0237L 21.0864 0L 37.0863 0.0476685L 37.0239 21.0237L 58 21.0237L 58 37.0237L 36.9762 37.0237L 36.9136 58.0474L 20.9137 57.9998L 20.9761 37.0237L 0 37.0237L 0 21.0237L 21.0238 21.0237ZM 25.0745 25.0237L 25.0745 4.0119L 33.0744 4.03571L 32.9255 25.0237L 25.0745 25.0237ZM 25.0745 33.0237L 24.9256 54.0117L 32.9255 54.0355L 32.9255 33.0237L 25.0745 33.0237ZM 4 33.0237L 54 33.0237L 54 25.0237L 4 25.0237L 4 33.0237Z"/>
</defs>
</svg>
