<?xml version="1.0" encoding="iso-8859-1"?>
<!-- Generator: Adobe Illustrator 19.0.0, SVG Export Plug-In . SVG Version: 6.00 Build 0)  -->
<svg xmlns="http://www.w3.org/2000/svg" xmlns:xlink="http://www.w3.org/1999/xlink" version="1.1" id="Capa_1" x="0px" y="0px" viewBox="0 0 512.001 512.001" style="enable-background:new 0 0 512.001 512.001;" xml:space="preserve" width="512px" height="512px">
<g>
	<g>
		<path d="M304.196,258.155c10.133,0,19.943-4.217,26.914-11.57l123.734-130.496c13.905-14.665,13.422-38.05-1.078-52.129    l-55.081-53.48C391.723,3.721,382.548,0,372.847,0H138.206c-4.237,0-8.418,0.747-12.362,2.146    c-0.129,0.04-0.256,0.087-0.384,0.131c-0.061,0.022-0.121,0.046-0.182,0.068c-0.386,0.137-0.768,0.285-1.144,0.455    c-4.753,1.951-9.106,4.871-12.707,8.628L57.29,67.927c-13.973,14.581-13.621,37.961,0.784,52.115l129.729,127.478    c6.979,6.859,16.211,10.635,25.997,10.635h30v22.636c-56.947,7.384-101.078,56.194-101.078,115.12    c0,64.011,52.077,116.089,116.089,116.089s116.089-52.077,116.089-116.089c0-58.925-44.132-107.735-101.079-115.12v-22.637    H304.196z M381.957,36.082l50.895,49.415c2.764,2.684,2.856,7.141,0.206,9.936l-94.454,99.617l-59.075-56.539L381.957,36.082z     M345.565,30.02l-87.727,87.727L166.175,30.02H345.565z M344.876,395.912c0,47.458-38.61,86.068-86.068,86.068    s-86.068-38.61-86.068-86.068c0-47.458,38.61-86.068,86.068-86.068S344.876,348.454,344.876,395.912z M213.798,228.135    c-1.866,0-3.625-0.718-4.955-2.026L79.114,98.63c-2.745-2.698-2.813-7.153-0.149-9.933l50.277-52.471l188.706,180.608    l-8.624,9.095c-1.329,1.401-3.198,2.204-5.128,2.204H213.798z" fill="#20e8b6"/>
	</g>
</g>
<g>
	<g>
		<path d="M267.919,352.226c-1.751-1.139-3.684-1.709-5.801-1.709c-1.465,0-2.647,0.285-3.54,0.855l-16.121,9.77    c-2.362,1.385-3.541,3.541-3.541,6.472c0,1.954,0.568,3.706,1.71,5.252c1.139,1.546,2.565,2.32,4.274,2.32    c1.058,0,2.075-0.324,3.053-0.978l3.541-2.198v62.156c0,1.873,0.936,3.317,2.809,4.335c1.871,1.02,4.11,1.526,6.717,1.526    c2.605,0,4.842-0.507,6.717-1.526c1.871-1.018,2.809-2.462,2.809-4.335V356.5C270.545,354.791,269.668,353.366,267.919,352.226z" fill="#20e8b6"/>
	</g>
</g>
<g>
</g>
<g>
</g>
<g>
</g>
<g>
</g>
<g>
</g>
<g>
</g>
<g>
</g>
<g>
</g>
<g>
</g>
<g>
</g>
<g>
</g>
<g>
</g>
<g>
</g>
<g>
</g>
<g>
</g>
</svg>
