<svg width="100" height="100" viewBox="0 0 100 100" version="1.1" xmlns="http://www.w3.org/2000/svg" xmlns:xlink="http://www.w3.org/1999/xlink">
<title>pictures</title>
<desc>Created using Figma</desc>
<g id="Canvas" transform="translate(148 -741)">
<g id="pictures">
<g id="Rectangle">
<use xlink:href="#path0_fill" transform="translate(-148 741)" fill="#FFFFFF"/>
</g>
<g id="Group">
<g id="Rectangle">
<mask id="mask0_outline_ins">
<use xlink:href="#path1_fill" fill="white" transform="matrix(-1 0 0 1 -64 768)"/>
</mask>
<g mask="url(#mask0_outline_ins)">
<use xlink:href="#path2_stroke_2x" transform="matrix(-1 0 0 1 -64 768)" fill="#20E8B6"/>
</g>
</g>
<g id="Ellipse">
<mask id="mask1_outline_ins">
<use xlink:href="#path3_fill" fill="white" transform="translate(-114 777)"/>
</mask>
<g mask="url(#mask1_outline_ins)">
<use xlink:href="#path4_stroke_2x" transform="translate(-114 777)" fill="#20E8B6"/>
</g>
</g>
<g id="Ellipse">
<mask id="mask2_outline_ins">
<use xlink:href="#path5_fill" fill="white" transform="translate(-109 782)"/>
</mask>
<g mask="url(#mask2_outline_ins)">
<use xlink:href="#path6_stroke_2x" transform="translate(-109 782)" fill="#20E8B6"/>
</g>
</g>
</g>
</g>
</g>
<defs>
<path id="path0_fill" d="M 0 0L 100 0L 100 100L 0 100L 0 0Z"/>
<path id="path1_fill" d="M 68 42L 68 9.41328C 68 7.20414 66.2091 5.41328 64 5.41328L 47.6383 5.41328C 46.5884 5.41328 45.5806 5.00053 44.8324 4.26409L 41.6676 1.14919C 40.9194 0.412749 39.9116 0 38.8617 0L 27.6383 0C 26.5884 0 25.5806 0.412749 24.8324 1.14919L 21.6676 4.26409C 20.9194 5.00053 19.9116 5.41328 18.8617 5.41328L 4 5.41328C 1.79086 5.41328 0 7.20414 0 9.41328L 0 42C 0 44.2091 1.79086 46 4 46L 64 46C 66.2091 46 68 44.2091 68 42Z"/>
<path id="path2_stroke_2x" d="M 44.8324 4.26409L 42.728 6.4022L 42.728 6.4022L 44.8324 4.26409ZM 41.6676 1.14919L 43.772 -0.988922L 43.772 -0.988926L 41.6676 1.14919ZM 24.8324 1.14919L 26.9368 3.2873L 26.9368 3.2873L 24.8324 1.14919ZM 21.6676 4.26409L 19.5632 2.12598L 19.5632 2.12598L 21.6676 4.26409ZM 65 9.41328L 65 42L 71 42L 71 9.41328L 65 9.41328ZM 64 43L 4 43L 4 49L 64 49L 64 43ZM 3 42L 3 9.41328L -3 9.41328L -3 42L 3 42ZM 47.6383 8.41328L 64 8.41328L 64 2.41328L 47.6383 2.41328L 47.6383 8.41328ZM 46.9368 2.12598L 43.772 -0.988922L 39.5632 3.2873L 42.728 6.4022L 46.9368 2.12598ZM 38.8617 -3L 27.6383 -3L 27.6383 3L 38.8617 3L 38.8617 -3ZM 4 8.41328L 18.8617 8.41328L 18.8617 2.41328L 4 2.41328L 4 8.41328ZM 22.728 -0.988924L 19.5632 2.12598L 23.772 6.4022L 26.9368 3.2873L 22.728 -0.988924ZM 18.8617 8.41328C 20.699 8.41328 22.4626 7.69097 23.772 6.4022L 19.5632 2.12598C 19.3761 2.31009 19.1242 2.41328 18.8617 2.41328L 18.8617 8.41328ZM 27.6383 -3C 25.801 -3 24.0374 -2.27769 22.728 -0.988923L 26.9368 3.2873C 27.1239 3.10319 27.3758 3 27.6383 3L 27.6383 -3ZM 43.772 -0.988926C 42.4626 -2.27769 40.699 -3 38.8617 -3L 38.8617 3C 39.1242 3 39.3761 3.10319 39.5632 3.2873L 43.772 -0.988926ZM 47.6383 2.41328C 47.3758 2.41328 47.1239 2.31009 46.9368 2.12598L 42.728 6.4022C 44.0374 7.69097 45.801 8.41328 47.6383 8.41328L 47.6383 2.41328ZM 4 43C 3.44771 43 3 42.5523 3 42L -3 42C -3 45.866 0.134008 49 4 49L 4 43ZM 65 42C 65 42.5523 64.5523 43 64 43L 64 49C 67.866 49 71 45.866 71 42L 65 42ZM 71 9.41328C 71 5.54728 67.866 2.41328 64 2.41328L 64 8.41328C 64.5523 8.41328 65 8.86099 65 9.41328L 71 9.41328ZM 3 9.41328C 3 8.86099 3.44772 8.41328 4 8.41328L 4 2.41328C 0.134006 2.41328 -3 5.54729 -3 9.41328L 3 9.41328Z"/>
<path id="path3_fill" d="M 32 16C 32 24.8366 24.8366 32 16 32C 7.16344 32 0 24.8366 0 16C 0 7.16344 7.16344 0 16 0C 24.8366 0 32 7.16344 32 16Z"/>
<path id="path4_stroke_2x" d="M 29 16C 29 23.1797 23.1797 29 16 29L 16 35C 26.4934 35 35 26.4934 35 16L 29 16ZM 16 29C 8.8203 29 3 23.1797 3 16L -3 16C -3 26.4934 5.50659 35 16 35L 16 29ZM 3 16C 3 8.8203 8.8203 3 16 3L 16 -3C 5.50659 -3 -3 5.50659 -3 16L 3 16ZM 16 3C 23.1797 3 29 8.8203 29 16L 35 16C 35 5.50659 26.4934 -3 16 -3L 16 3Z"/>
<path id="path5_fill" d="M 22 11C 22 17.0751 17.0751 22 11 22C 4.92487 22 0 17.0751 0 11C 0 4.92487 4.92487 0 11 0C 17.0751 0 22 4.92487 22 11Z"/>
<path id="path6_stroke_2x" d="M 19 11C 19 15.4183 15.4183 19 11 19L 11 25C 18.732 25 25 18.732 25 11L 19 11ZM 11 19C 6.58172 19 3 15.4183 3 11L -3 11C -3 18.732 3.26801 25 11 25L 11 19ZM 3 11C 3 6.58172 6.58172 3 11 3L 11 -3C 3.26801 -3 -3 3.26801 -3 11L 3 11ZM 11 3C 15.4183 3 19 6.58172 19 11L 25 11C 25 3.26801 18.732 -3 11 -3L 11 3Z"/>
</defs>
</svg>
