<svg width="129" height="128" viewBox="0 0 129 128" version="1.1" xmlns="http://www.w3.org/2000/svg" xmlns:xlink="http://www.w3.org/1999/xlink">
<title>price</title>
<desc>Created using Figma</desc>
<g id="Canvas" transform="translate(308 -601)">
<g id="price">
<g id="Vector">
<use xlink:href="#path0_fill" transform="translate(-281.997 627)" fill="#20E8B6"/>
</g>
<g id="&#226;&#130;&#172;">
<mask id="mask0_outline_out">
<rect id="mask0_outline_inv" fill="white" x="-3" y="-3" width="28" height="39" transform="translate(-256 649)"/>
<use xlink:href="#path1_fill" fill="black" transform="translate(-256 649)"/>
</mask>
<g mask="url(#mask0_outline_out)">
<use xlink:href="#path2_stroke_2x" transform="translate(-256 649)" fill="#20E8B6"/>
</g>
</g>
<g id="Vector">
<use xlink:href="#path3_fill" transform="translate(-253.5 601)" fill="#20E8B6"/>
</g>
<g id="Vector">
<use xlink:href="#path4_fill" transform="translate(-308 655.208)" fill="#20E8B6"/>
</g>
<g id="Vector">
<use xlink:href="#path5_fill" transform="translate(-199 655.208)" fill="#20E8B6"/>
</g>
<g id="Vector">
<use xlink:href="#path6_fill" transform="translate(-253.5 711)" fill="#20E8B6"/>
</g>
<g id="Vector">
<use xlink:href="#path7_fill" transform="translate(-215.239 693.757)" fill="#20E8B6"/>
</g>
<g id="Vector">
<use xlink:href="#path8_fill" transform="translate(-293.021 615.975)" fill="#20E8B6"/>
</g>
<g id="Vector">
<use xlink:href="#path9_fill" transform="translate(-291.44 693.759)" fill="#20E8B6"/>
</g>
<g id="Vector">
<use xlink:href="#path10_fill" transform="translate(-213.659 615.977)" fill="#20E8B6"/>
</g>
</g>
</g>
<defs>
<path id="path0_fill" d="M 67.1758 62.6934C 68.5303 61.0498 67.7344 58.7656 67.0322 56.75C 66.8115 56.1152 66.4668 55.125 66.3848 54.5742C 66.8936 54.3721 67.8916 54.1729 68.5332 54.0439C 70.6338 53.625 73.0156 53.1484 73.7412 51.1182C 74.4521 49.125 72.9385 47.2568 71.6025 45.6084C 71.1758 45.0811 70.5088 44.2588 70.2461 43.7646C 70.6533 43.4053 71.5186 42.8799 72.0742 42.5439C 73.9141 41.4277 76 40.1641 76 38C 76 35.8359 73.9141 34.5723 72.0742 33.4561C 71.5186 33.1201 70.6533 32.5947 70.2451 32.2354C 70.5088 31.7412 71.1748 30.9199 71.6016 30.3936C 72.9375 28.7461 74.4521 26.8779 73.7402 24.8818C 73.0156 22.8525 70.6338 22.376 68.5332 21.957C 67.8916 21.8281 66.8936 21.6289 66.3848 21.4268C 66.4668 20.876 66.8115 19.8867 67.0322 19.252C 67.7354 17.2354 68.5313 14.9492 67.1768 13.3086C 66.1484 12.0596 64.54 12.0596 64.0117 12.0596C 63.1455 12.0596 62.2119 12.2031 61.3076 12.3418C 60.5527 12.457 59.7725 12.5771 59.2119 12.5771C 59.1709 12.5771 59.1328 12.5762 59.0986 12.5752C 58.9932 12.0273 58.9834 10.9951 58.9766 10.332C 58.9541 8.1885 58.9297 5.7588 57.0879 4.668C 56.6006 4.3809 56.0469 4.2344 55.4414 4.2344C 54.0605 4.2344 52.7012 4.9844 51.2607 5.7773C 50.6807 6.0977 49.7764 6.5957 49.2529 6.7705C 48.9707 6.2969 48.6123 5.3457 48.3818 4.7344C 47.6191 2.7148 46.7559 0.4268 44.6309 0.0468998C 44.4551 0.0156002 44.2783 0 44.0996 0C 42.2627 0 40.9014 1.5752 39.584 3.0996C 39.1377 3.6162 38.4395 4.4248 37.9995 4.7666C 37.5596 4.4248 36.8608 3.6162 36.415 3.0996C 35.0981 1.5762 33.7363 0 31.8989 0C 31.7207 0 31.5435 0.0156002 31.3677 0.0468998C 29.2441 0.4268 28.3809 2.7139 27.6187 4.7324C 27.3882 5.3447 27.0288 6.2959 26.7471 6.7695C 26.2202 6.5947 25.3179 6.0977 24.7388 5.7773C 23.2988 4.9844 21.939 4.2344 20.5591 4.2344C 19.9536 4.2344 19.3994 4.3809 18.9087 4.6699C 17.0698 5.7588 17.0449 8.1885 17.0234 10.333C 17.0166 10.9961 17.0063 12.0273 16.9009 12.5752C 16.8672 12.5762 16.8296 12.5771 16.7881 12.5771C 16.2275 12.5771 15.4468 12.457 14.6914 12.3418C 13.7876 12.2031 12.853 12.0596 11.9873 12.0596C 11.459 12.0596 9.85059 12.0596 8.8228 13.3086C 7.4707 14.9502 8.26559 17.2344 8.9668 19.25C 9.188 19.8848 9.5322 20.876 9.6147 21.4268C 9.1064 21.6289 8.1074 21.8281 7.4663 21.957C 5.3652 22.376 2.9844 22.8525 2.2583 24.8838C 1.5474 26.8779 3.06149 28.7451 4.3975 30.3926C 4.8247 30.9189 5.4917 31.7422 5.75389 32.2354C 5.34669 32.5957 4.481 33.1201 3.92529 33.457C 2.0854 34.5723 0 35.8359 0 38C 0 40.1641 2.0854 41.4277 3.92529 42.543C 4.481 42.8799 5.3467 43.4043 5.75389 43.7646C 5.4912 44.2588 4.8242 45.0811 4.3975 45.6084C 3.06149 47.2568 1.5474 49.125 2.2593 51.1182C 2.9839 53.1484 5.3657 53.625 7.4668 54.0439C 8.1074 54.1729 9.1064 54.3721 9.6143 54.5742C 9.5322 55.125 9.1875 56.1152 8.9668 56.75C 8.26509 58.7656 7.4697 61.0498 8.8223 62.6924C 9.8442 63.9336 11.4395 63.9414 11.9771 63.9414C 11.98 63.9414 11.9834 63.9414 11.9863 63.9414C 12.8525 63.9414 13.7876 63.7979 14.6914 63.6592C 15.4468 63.543 16.228 63.4238 16.7881 63.4238C 16.8291 63.4238 16.8667 63.4238 16.9004 63.4248C 17.0059 63.9727 17.0166 65.0059 17.0234 65.6699C 17.0449 67.8135 17.0698 70.2441 18.9116 71.333C 19.3994 71.6211 19.9536 71.7666 20.5596 71.7666C 21.9404 71.7666 23.2998 71.0166 24.7397 70.2227C 25.3198 69.9033 26.2236 69.4043 26.7461 69.2295C 27.0283 69.7041 27.3877 70.6563 27.6187 71.2676C 28.3809 73.2861 29.2441 75.5732 31.3672 75.9531C 31.5435 75.9844 31.7202 76 31.8994 76L 31.9004 76C 33.7368 76 35.0981 74.4238 36.415 72.9004C 36.8608 72.3848 37.5596 71.5762 37.9995 71.2344C 38.4395 71.5762 39.1377 72.3848 39.584 72.9014C 40.9004 74.4248 42.2627 76 44.0996 76C 44.2783 76 44.4561 75.9844 44.6309 75.9531C 46.7559 75.5732 47.6191 73.2852 48.3818 71.2666C 48.6123 70.6553 48.9707 69.7051 49.2529 69.2314C 49.7793 69.4063 50.6816 69.9043 51.2607 70.2236C 52.7002 71.0176 54.0596 71.7666 55.4395 71.7666C 56.0459 71.7666 56.6006 71.6201 57.0879 71.332C 58.9287 70.2451 58.9541 67.8135 58.9756 65.668C 58.9824 65.0049 58.9932 63.9727 59.0986 63.4248C 59.1328 63.4238 59.1699 63.4238 59.2109 63.4238C 59.7715 63.4238 60.5527 63.543 61.3086 63.6592C 62.2119 63.7979 63.1475 63.9414 64.0127 63.9414C 64.541 63.9414 66.1494 63.9414 67.1758 62.6934ZM 63.2549 58.0654C 63.4395 58.5957 63.7119 59.377 63.8428 59.9375C 63.2998 59.918 62.5967 59.8096 61.9141 59.7051C 61.0107 59.5664 60.0762 59.4238 59.2109 59.4238C 58.0176 59.4238 57.1055 59.707 56.4219 60.293C 55.0186 61.4971 54.9971 63.5967 54.9766 65.627C 54.9707 66.1904 54.9619 67.0186 54.8945 67.5938C 54.374 67.3721 53.6719 66.9844 53.1924 66.7207C 51.8076 65.957 50.376 65.168 48.9834 65.168C 48.5693 65.168 48.1758 65.2363 47.8115 65.3711C 46.0898 66.0117 45.3525 67.9648 44.6396 69.8535C 44.4395 70.3818 44.1465 71.1582 43.8857 71.6777C 43.4785 71.29 42.9629 70.6934 42.6104 70.2861C 41.2686 68.7334 39.8818 67.1279 37.999 67.1279C 36.1172 67.1279 34.73 68.7334 33.3887 70.2852C 33.0361 70.6924 32.521 71.2891 32.1138 71.6768C 31.8525 71.1572 31.5601 70.3828 31.3608 69.8555C 30.6475 67.9658 29.9102 66.0117 28.187 65.3711C 27.8228 65.2363 27.4292 65.168 27.0156 65.168C 25.623 65.168 24.1919 65.957 22.8081 66.7197C 22.3276 66.9854 21.623 67.373 21.104 67.5957C 21.0371 67.0205 21.0288 66.1924 21.0229 65.6289C 21.0024 63.5977 20.981 61.4971 19.5757 60.292C 18.894 59.707 17.9819 59.4238 16.7881 59.4238C 15.9233 59.4238 14.9888 59.5664 14.0854 59.7051C 13.4033 59.8096 12.7002 59.918 12.1567 59.9375C 12.2876 59.377 12.5596 58.5957 12.7441 58.0654C 13.4141 56.1416 14.1064 54.1533 13.1885 52.5371C 12.2754 50.9258 10.229 50.5176 8.2505 50.1221C 7.6958 50.0107 6.8774 49.8477 6.32859 49.6738C 6.63919 49.1953 7.1548 48.5586 7.50539 48.127C 8.7915 46.54 10.1216 44.8984 9.8047 43.0557C 9.49459 41.2422 7.7178 40.165 5.999 39.123C 5.4941 38.8164 4.74269 38.3613 4.28419 38C 4.74269 37.6387 5.49409 37.1836 5.999 36.877C 7.7178 35.835 9.49459 34.7578 9.8042 32.9463C 10.1216 31.1006 8.791 29.46 7.50439 27.873C 7.1543 27.4414 6.63819 26.8057 6.32809 26.3271C 6.877 26.1533 7.6953 25.9902 8.25 25.8789C 10.229 25.4834 12.2754 25.0752 13.1875 23.4658C 14.1064 21.8486 13.4141 19.8594 12.7446 17.9355C 12.5601 17.4053 12.2881 16.624 12.1577 16.0635C 12.7007 16.083 13.4038 16.1904 14.0854 16.2949C 14.9888 16.4336 15.9229 16.5771 16.7881 16.5771C 17.9819 16.5771 18.894 16.293 19.5776 15.707C 20.9814 14.5029 21.0029 12.4033 21.0234 10.373C 21.0288 9.8096 21.0371 8.9824 21.104 8.4072C 21.6255 8.6289 22.3281 9.0166 22.8076 9.2813C 24.1919 10.0439 25.6235 10.833 27.0161 10.833C 27.4287 10.833 27.8223 10.7646 28.1851 10.6299C 29.9097 9.9902 30.6475 8.0352 31.3613 6.1455C 31.5605 5.6172 31.8525 4.8428 32.1138 4.3242C 32.521 4.7119 33.0361 5.3076 33.3882 5.7148C 34.73 7.2676 36.1172 8.873 37.999 8.873C 39.8818 8.873 41.2695 7.2676 42.6113 5.7148C 42.9629 5.3066 43.4785 4.7109 43.8857 4.3232C 44.1465 4.8428 44.4395 5.6182 44.6387 6.1465C 45.3525 8.0361 46.0898 9.9902 47.8125 10.6299C 48.1758 10.7646 48.5693 10.833 48.9824 10.833C 50.375 10.833 51.8066 10.0439 53.1914 9.2813C 53.6719 9.0166 54.376 8.6279 54.8955 8.4063C 54.9619 8.9814 54.9707 9.8096 54.9766 10.3721C 54.9971 12.4033 55.0186 14.5029 56.4238 15.709C 57.1055 16.293 58.0176 16.5771 59.2119 16.5771C 60.0771 16.5771 61.0107 16.4336 61.9131 16.2949C 62.5957 16.1904 63.2998 16.083 63.8428 16.0635C 63.7119 16.624 63.4404 17.4053 63.2549 17.9365C 62.585 19.8604 61.8926 21.8496 62.8105 23.4639C 63.7236 25.0752 65.7705 25.4834 67.749 25.8789C 68.3037 25.9902 69.123 26.1533 69.6719 26.3281C 69.3613 26.8057 68.8447 27.4414 68.4951 27.874C 67.209 29.46 65.8789 31.1006 66.1943 32.9453C 66.5059 34.7588 68.2822 35.8359 70.001 36.877C 70.5059 37.1826 71.2568 37.6387 71.7158 38C 71.2568 38.3613 70.5059 38.8174 70.001 39.123C 68.2822 40.1641 66.5059 41.2412 66.1943 43.0547C 65.8789 44.8994 67.208 46.54 68.4951 48.127C 68.8447 48.5586 69.3604 49.1953 69.6709 49.6738C 69.1221 49.8477 68.3037 50.0107 67.749 50.1221C 65.7705 50.5176 63.7236 50.9258 62.8115 52.5352C 61.8926 54.1523 62.585 56.1416 63.2549 58.0654Z"/>
<path id="path1_fill" d="M 17.2949 20.6035L 10.0977 20.6035C 10.1693 22.709 10.7279 24.2917 11.7734 25.3516C 12.8333 26.4115 14.4733 26.9414 16.6934 26.9414C 18.1973 26.9414 19.5579 26.7194 20.7754 26.2754L 21.5488 31.4746C 19.7728 31.89 17.9395 32.0977 16.0488 32.0977C 12.2819 32.0977 9.29557 31.0879 7.08984 29.0684C 4.89844 27.0345 3.74544 24.2129 3.63086 20.6035L 0 20.6035L 0 17.3379L 3.63086 17.3379L 3.63086 14.6738L 0 14.6738L 0 11.4082L 3.67383 11.4082C 3.91732 7.79883 5.17057 4.9987 7.43359 3.00781C 9.71094 1.0026 12.7259 0 16.4785 0C 17.9824 0 19.6725 0.222005 21.5488 0.666016L 20.7754 5.88672C 19.429 5.42839 18.1042 5.19922 16.8008 5.19922C 12.7474 5.19922 10.5273 7.26888 10.1406 11.4082L 17.2949 11.4082L 17.2949 14.6738L 10.0977 14.6738L 10.0977 17.3379L 17.2949 17.3379L 17.2949 20.6035Z"/>
<path id="path2_stroke_2x" d="M 17.2949 20.6035L 17.2949 23.6035L 20.2949 23.6035L 20.2949 20.6035L 17.2949 20.6035ZM 10.0977 20.6035L 10.0977 17.6035L 6.99388 17.6035L 7.09939 20.7055L 10.0977 20.6035ZM 11.7734 25.3516L 9.63774 27.4584L 9.6449 27.4657L 9.65212 27.4729L 11.7734 25.3516ZM 20.7754 26.2754L 23.7427 25.834L 23.2017 22.1972L 19.7475 23.457L 20.7754 26.2754ZM 21.5488 31.4746L 22.232 34.3958L 24.9228 33.7665L 24.5162 31.0332L 21.5488 31.4746ZM 7.08984 29.0684L 5.04904 31.2673L 5.05648 31.2742L 5.06397 31.281L 7.08984 29.0684ZM 3.63086 20.6035L 6.62935 20.5083L 6.53713 17.6035L 3.63086 17.6035L 3.63086 20.6035ZM 0 20.6035L -3 20.6035L -3 23.6035L 0 23.6035L 0 20.6035ZM 0 17.3379L 0 14.3379L -3 14.3379L -3 17.3379L 0 17.3379ZM 3.63086 17.3379L 3.63086 20.3379L 6.63086 20.3379L 6.63086 17.3379L 3.63086 17.3379ZM 3.63086 14.6738L 6.63086 14.6738L 6.63086 11.6738L 3.63086 11.6738L 3.63086 14.6738ZM 0 14.6738L -3 14.6738L -3 17.6738L 0 17.6738L 0 14.6738ZM 0 11.4082L 0 8.4082L -3 8.4082L -3 11.4082L 0 11.4082ZM 3.67383 11.4082L 3.67383 14.4082L 6.47827 14.4082L 6.66702 11.6101L 3.67383 11.4082ZM 7.43359 3.00781L 9.41516 5.26024L 9.41612 5.25939L 7.43359 3.00781ZM 21.5488 0.666016L 24.5164 1.10566L 24.9201 -1.61906L 22.2397 -2.25336L 21.5488 0.666016ZM 20.7754 5.88672L 19.8086 8.72667L 23.2156 9.88649L 23.743 6.32636L 20.7754 5.88672ZM 10.1406 11.4082L 7.15363 11.1291L 6.84728 14.4082L 10.1406 14.4082L 10.1406 11.4082ZM 17.2949 11.4082L 20.2949 11.4082L 20.2949 8.4082L 17.2949 8.4082L 17.2949 11.4082ZM 17.2949 14.6738L 17.2949 17.6738L 20.2949 17.6738L 20.2949 14.6738L 17.2949 14.6738ZM 10.0977 14.6738L 10.0977 11.6738L 7.09766 11.6738L 7.09766 14.6738L 10.0977 14.6738ZM 10.0977 17.3379L 7.09766 17.3379L 7.09766 20.3379L 10.0977 20.3379L 10.0977 17.3379ZM 17.2949 17.3379L 20.2949 17.3379L 20.2949 14.3379L 17.2949 14.3379L 17.2949 17.3379ZM 17.2949 17.6035L 10.0977 17.6035L 10.0977 23.6035L 17.2949 23.6035L 17.2949 17.6035ZM 7.09939 20.7055C 7.186 23.2518 7.87854 25.6751 9.63774 27.4584L 13.9091 23.2447C 13.5772 22.9082 13.1525 22.1661 13.0959 20.5015L 7.09939 20.7055ZM 9.65212 27.4729C 11.496 29.3168 14.0578 29.9414 16.6934 29.9414L 16.6934 23.9414C 14.8888 23.9414 14.1707 23.5062 13.8948 23.2302L 9.65212 27.4729ZM 16.6934 29.9414C 18.4926 29.9414 20.2082 29.6755 21.8033 29.0938L 19.7475 23.457C 18.9077 23.7633 17.9019 23.9414 16.6934 23.9414L 16.6934 29.9414ZM 17.808 26.7168L 18.5815 31.916L 24.5162 31.0332L 23.7427 25.834L 17.808 26.7168ZM 20.8656 28.5534C 19.3216 28.9145 17.7179 29.0977 16.0488 29.0977L 16.0488 35.0977C 18.161 35.0977 20.224 34.8654 22.232 34.3958L 20.8656 28.5534ZM 16.0488 29.0977C 12.8295 29.0977 10.6352 28.247 9.11572 26.8557L 5.06397 31.281C 7.95591 33.9288 11.7343 35.0977 16.0488 35.0977L 16.0488 29.0977ZM 9.13065 26.8695C 7.64553 25.4911 6.72416 23.4948 6.62935 20.5083L 0.63237 20.6987C 0.766727 24.931 2.15134 28.5779 5.04904 31.2673L 9.13065 26.8695ZM 3.63086 17.6035L 0 17.6035L 0 23.6035L 3.63086 23.6035L 3.63086 17.6035ZM 3 20.6035L 3 17.3379L -3 17.3379L -3 20.6035L 3 20.6035ZM 0 20.3379L 3.63086 20.3379L 3.63086 14.3379L 0 14.3379L 0 20.3379ZM 6.63086 17.3379L 6.63086 14.6738L 0.630859 14.6738L 0.630859 17.3379L 6.63086 17.3379ZM 3.63086 11.6738L 0 11.6738L 0 17.6738L 3.63086 17.6738L 3.63086 11.6738ZM 3 14.6738L 3 11.4082L -3 11.4082L -3 14.6738L 3 14.6738ZM 0 14.4082L 3.67383 14.4082L 3.67383 8.4082L 0 8.4082L 0 14.4082ZM 6.66702 11.6101C 6.86862 8.62184 7.86302 6.62572 9.41516 5.26024L 5.45203 0.755389C 2.47813 3.37167 0.96602 6.97581 0.680631 11.2063L 6.66702 11.6101ZM 9.41612 5.25939C 11.0243 3.84335 13.2761 3 16.4785 3L 16.4785 -3C 12.1757 -3 8.39754 -1.83814 5.45107 0.756234L 9.41612 5.25939ZM 16.4785 3C 17.6953 3 19.148 3.18074 20.858 3.58539L 22.2397 -2.25336C 20.197 -2.73673 18.2695 -3 16.4785 -3L 16.4785 3ZM 18.5812 0.22637L 17.8078 5.44707L 23.743 6.32636L 24.5164 1.10566L 18.5812 0.22637ZM 21.7422 3.04677C 20.1128 2.49209 18.4617 2.19922 16.8008 2.19922L 16.8008 8.19922C 17.7467 8.19922 18.7452 8.36468 19.8086 8.72667L 21.7422 3.04677ZM 16.8008 2.19922C 14.275 2.19922 11.8803 2.85085 10.05 4.55712C 8.23098 6.25293 7.38996 8.59953 7.15363 11.1291L 13.1276 11.6873C 13.278 10.0776 13.7404 9.31966 14.1414 8.94581C 14.5312 8.58242 15.2731 8.19922 16.8008 8.19922L 16.8008 2.19922ZM 10.1406 14.4082L 17.2949 14.4082L 17.2949 8.4082L 10.1406 8.4082L 10.1406 14.4082ZM 14.2949 11.4082L 14.2949 14.6738L 20.2949 14.6738L 20.2949 11.4082L 14.2949 11.4082ZM 17.2949 11.6738L 10.0977 11.6738L 10.0977 17.6738L 17.2949 17.6738L 17.2949 11.6738ZM 7.09766 14.6738L 7.09766 17.3379L 13.0977 17.3379L 13.0977 14.6738L 7.09766 14.6738ZM 10.0977 20.3379L 17.2949 20.3379L 17.2949 14.3379L 10.0977 14.3379L 10.0977 20.3379ZM 14.2949 17.3379L 14.2949 20.6035L 20.2949 20.6035L 20.2949 17.3379L 14.2949 17.3379Z"/>
<path id="path3_fill" d="M 3.11225 11.7236L 2.63865 14.4248C 2.45845 15.4424 2.67036 16.375 3.23625 17.0498C 4.08245 18.0576 5.55605 18.292 6.95695 17.5742L 9.50336 16.2686L 12.0472 17.5742C 12.5972 17.8564 13.1479 18 13.686 18C 14.5151 18 15.2544 17.6621 15.769 17.0498C 16.3354 16.376 16.5482 15.4443 16.3696 14.4268L 15.894 11.7227L 17.9097 9.8037C 18.8667 8.8984 19.2202 7.7676 18.8804 6.7002C 18.5386 5.627 17.5854 4.9043 16.2661 4.7178L 13.435 4.3164L 12.1782 1.8232C 11.5892 0.665 10.6147 0 9.50336 0C 8.38865 0 7.41355 0.667 6.83005 1.8271L 5.57215 4.3164L 2.74065 4.7178C 1.42185 4.9043 0.46965 5.626 0.12685 6.6992C -0.213448 7.7656 0.138653 8.8965 1.09025 9.7979L 3.11225 11.7236ZM 8.20115 7.9844L 9.50436 5.4053L 10.8042 7.9844L 13.603 8.3809L 11.5835 10.3047L 12.0727 13.0908L 9.50536 11.7725L 6.93355 13.0908L 7.42275 10.3037L 5.40275 8.3809L 8.20115 7.9844Z"/>
<path id="path4_fill" d="M 15.894 11.7227L 17.9092 9.8037C 18.8667 8.8984 19.2207 7.7676 18.8804 6.7002C 18.5386 5.627 17.5854 4.9043 16.2666 4.7178L 13.435 4.3164L 12.1782 1.8233C 11.5893 0.665001 10.6142 -1.68945e-08 9.50336 -1.68945e-08C 8.38865 -1.68945e-08 7.41355 0.667 6.83005 1.8272L 5.57215 4.3164L 2.74065 4.7178C 1.42185 4.9043 0.469151 5.626 0.126852 6.6992C -0.213448 7.7656 0.138652 8.8965 1.09025 9.7979L 3.11225 11.7236L 2.63865 14.4248C 2.45845 15.4424 2.67036 16.375 3.23625 17.0498C 4.08195 18.0576 5.55605 18.291 6.95695 17.5742L 9.50385 16.2686L 12.0469 17.5742C 12.5972 17.8565 13.1484 18 13.6855 18C 14.5146 18 15.2544 17.6621 15.769 17.0498C 16.3349 16.376 16.5483 15.4443 16.3696 14.4268L 15.894 11.7227ZM 12.0732 13.0908L 9.50485 11.7725L 6.93355 13.0908L 7.42275 10.3037L 5.40275 8.3809L 8.20115 7.9844L 9.50436 5.4053L 10.8042 7.9844L 13.603 8.3809L 11.5835 10.3047L 12.0732 13.0908Z"/>
<path id="path5_fill" d="M 18.8805 6.7002C 18.5387 5.627 17.5855 4.9043 16.2662 4.7178L 13.4351 4.3164L 12.1783 1.8233C 11.5894 0.665001 10.6148 -1.68945e-08 9.50351 -1.68945e-08C 8.3883 -1.68945e-08 7.4137 0.667 6.8297 1.8272L 5.5719 4.3164L 2.7398 4.7178C 1.42151 4.9043 0.469298 5.627 0.12651 6.6992C -0.213296 7.7656 0.139205 8.8965 1.0904 9.7979L 3.1119 11.7236L 2.6392 14.4238C 2.4586 15.4414 2.67051 16.374 3.2359 17.0488C 4.0816 18.0596 5.5553 18.294 6.9576 17.5742L 9.50351 16.2686L 12.0474 17.5742C 12.5973 17.8565 13.148 18 13.6861 18C 14.5152 18 15.2545 17.6621 15.7691 17.0498C 16.3355 16.376 16.5484 15.4443 16.3697 14.4268L 15.8941 11.7227L 17.9098 9.8037C 18.8668 8.8984 19.2203 7.7676 18.8805 6.7002ZM 12.0728 13.0908L 9.50551 11.7725L 6.9332 13.0908L 7.4224 10.3037L 5.4029 8.3809L 8.2008 7.9844L 9.50451 5.4053L 10.8043 7.9844L 13.6031 8.3809L 11.5836 10.3047L 12.0728 13.0908Z"/>
<path id="path6_fill" d="M 16.2661 4.7178L 13.435 4.3164L 12.1782 1.8232C 11.5892 0.665001 10.6147 0 9.50336 0C 8.38865 0 7.41355 0.667 6.83005 1.8271L 5.57215 4.3164L 2.74065 4.7178C 1.42185 4.9043 0.46965 5.626 0.12685 6.6992C -0.213448 7.7656 0.138653 8.8965 1.09025 9.7979L 3.11225 11.7236L 2.63865 14.4248C 2.45845 15.4424 2.67036 16.375 3.23625 17.0498C 4.08245 18.0576 5.55605 18.291 6.95695 17.5742L 9.50336 16.2686L 12.0472 17.5742C 12.5972 17.8564 13.1479 18 13.686 18C 14.5151 18 15.2544 17.6621 15.769 17.0498C 16.3354 16.376 16.5482 15.4443 16.3696 14.4268L 15.894 11.7227L 17.9097 9.8037C 18.8667 8.8984 19.2202 7.7676 18.8804 6.7002C 18.5386 5.627 17.5854 4.9043 16.2661 4.7178ZM 12.0727 13.0908L 9.50536 11.7725L 6.93355 13.0908L 7.42275 10.3037L 5.40275 8.3809L 8.20115 7.9844L 9.50436 5.4053L 10.8042 7.9844L 13.603 8.3809L 11.5835 10.3047L 12.0727 13.0908Z"/>
<path id="path7_fill" d="M 15.6352 3.6192L 12.7269 3.6885L 11.1528 1.4444C 10.2739 0.1875 9.20256 -1.09473e-07 8.64195 -1.09473e-07C 7.65565 -1.09473e-07 6.41056 0.596703 5.87145 2.2696L 4.99356 4.9942L 2.27186 5.8692C 1.01505 6.27451 0.198652 7.1416 0.0306529 8.2491C -0.135348 9.3487 0.378256 10.4063 1.44076 11.1514L 3.68986 12.7276L 3.62145 15.5108C 3.58726 16.7344 4.05605 17.4795 4.45445 17.8887C 4.95256 18.4014 5.62636 18.6836 6.35095 18.6836C 7.03456 18.6836 7.73665 18.4278 8.37826 17.9434L 10.6644 16.2256L 13.3178 17.0996C 14.7016 17.5518 16.0483 17.1758 16.7708 16.1758C 17.0971 15.7256 17.5717 14.7539 17.0961 13.3155L 16.225 10.6651L 17.9428 8.37991C 18.7338 7.3291 18.9028 6.1563 18.4076 5.1621C 17.9184 4.1817 16.9076 3.6192 15.6352 3.6192ZM 11.7739 9.9307L 12.6752 12.6768L 9.93205 11.7725L 7.67225 13.4698L 7.74056 10.6827L 5.42325 9.0577L 8.17126 8.1739L 9.05795 5.4229L 10.683 7.7393L 13.4711 7.67191L 11.7739 9.9307Z"/>
<path id="path8_fill" d="M 1.44101 11.1514L 3.68952 12.7275L 3.62221 15.5098C 3.58701 16.7334 4.05531 17.4785 4.45371 17.8887C 4.95221 18.4024 5.62611 18.6846 6.35071 18.6846C 7.03431 18.6846 7.73641 18.4287 8.37901 17.9443L 10.6651 16.2256L 13.316 17.0996C 14.7027 17.5508 16.0484 17.1777 16.7711 16.1768C 17.0968 15.7266 17.5719 14.7549 17.0958 13.3145L 16.2252 10.666L 17.9444 8.3799C 18.7345 7.3281 18.9029 6.1553 18.4068 5.1621C 17.9171 4.1817 16.9063 3.6192 15.6329 3.6192L 12.7271 3.6895L 11.1524 1.4443C 10.275 0.1885 9.20321 3.82568e-08 8.64221 3.82568e-08C 7.65631 3.82568e-08 6.41071 0.5967 5.87121 2.2705L 4.99371 4.9951L 2.27352 5.8701C 1.01621 6.2734 0.198811 7.1397 0.0308115 8.2481C -0.135688 9.3477 0.378011 10.4063 1.44101 11.1514ZM 8.17241 8.1748L 9.05871 5.4248L 10.6832 7.7402L 13.4718 7.6729L 11.773 9.9317L 12.6749 12.6768L 9.93271 11.7725L 7.67241 13.4707L 7.74031 10.6826L 5.42441 9.0586L 8.17241 8.1748Z"/>
<path id="path9_fill" d="M 16.4172 5.8701L 13.6926 4.9922L 12.8171 2.2705C 12.2786 0.595703 11.0315 9.18945e-08 10.0442 9.18945e-08C 9.48414 9.18945e-08 8.41384 0.186501 7.53544 1.4394L 5.95924 3.68851L 3.17554 3.6201L 3.05254 3.6182C 1.77954 3.6182 0.768842 4.1807 0.279543 5.1611C -0.216557 6.1562 -0.0465568 7.3281 0.743442 8.3769L 2.46124 10.6631L 1.58674 13.3164C 1.11604 14.7607 1.59304 15.7305 1.91924 16.1797C 2.64484 17.1787 4.00124 17.5469 5.37134 17.0947L 8.02174 16.2236L 10.3069 17.9414C 10.9509 18.4267 11.6526 18.6826 12.3367 18.6826C 13.0608 18.6826 13.7346 18.4004 14.2332 17.8867C 14.6316 17.4775 15.0999 16.7324 15.0662 15.5176L 14.9983 12.7256L 17.2424 11.1514C 18.3069 10.4072 18.823 9.3496 18.6575 8.25C 18.491 7.1426 17.6746 6.27441 16.4172 5.8701ZM 10.9475 10.6816L 11.0149 13.4697L 8.75614 11.7725L 6.00614 12.6865L 6.91434 9.9307L 5.21704 7.67091L 8.00414 7.7392L 9.62914 5.42191L 10.5129 8.16991L 13.2634 9.0566L 10.9475 10.6816Z"/>
<path id="path10_fill" d="M 2.46217 10.664L 1.58817 13.3144C 1.11647 14.7588 1.59307 15.7295 1.91916 16.1787C 2.64377 17.1797 3.99927 17.5488 5.37237 17.0947L 8.02176 16.2236L 10.3089 17.9443C 10.9524 18.4277 11.6536 18.6826 12.3362 18.6826C 13.0608 18.6826 13.7337 18.4004 14.2327 17.8877C 14.6312 17.4785 15.0999 16.7343 15.0667 15.5175L 14.9983 12.7255L 17.2435 11.1513C 18.3079 10.4072 18.8235 9.3505 18.6585 8.2509C 18.4915 7.1425 17.6751 6.2754 16.4173 5.8701L 13.6927 4.9931L 12.8177 2.2714C 12.2806 0.596601 11.0335 -6.70166e-09 10.0452 -6.70166e-09C 9.48557 -6.70166e-09 8.41437 0.1875 7.53637 1.4394L 5.96027 3.6884L 3.17797 3.6211L 3.05107 3.6191C 1.77857 3.6191 0.768766 4.1816 0.279569 5.1621C -0.216532 6.1562 -0.0466259 7.3291 0.743467 8.3779L 2.46217 10.664ZM 8.00517 7.7392L 9.62917 5.4228L 10.513 8.1709L 13.263 9.0576L 10.9476 10.6816L 11.0149 13.4707L 8.75617 11.7724L 6.00707 12.6865L 6.91527 9.9316L 5.21707 7.6718L 8.00517 7.7392Z"/>
</defs>
</svg>
