<svg width="100" height="100" viewBox="0 0 100 100" version="1.1" xmlns="http://www.w3.org/2000/svg" xmlns:xlink="http://www.w3.org/1999/xlink">
<title>price</title>
<desc>Created using Figma</desc>
<g id="Canvas" transform="translate(315 -774)">
<g id="price">
<g id="Rectangle">
<use xlink:href="#path0_fill" transform="translate(-315 774)" fill="#FFFFFF"/>
</g>
<g id="Group">
<g id="Line">
<use xlink:href="#path1_stroke" transform="matrix(0.828589 -0.559857 0.559857 0.828589 -301 818)" fill="#20E8B6"/>
</g>
<g id="Line">
<use xlink:href="#path2_stroke" transform="matrix(-0.82137 -0.570396 0.570396 -0.82137 -230 815)" fill="#20E8B6"/>
</g>
<g id="VENDU">
<use xlink:href="#path3_fill" transform="translate(-298 817)" fill="#20E8B6"/>
</g>
<g id="Rectangle">
<mask id="mask0_outline_ins">
<use xlink:href="#path4_fill" fill="white" transform="matrix(-1 0 0 1 -223 815)"/>
</mask>
<g mask="url(#mask0_outline_ins)">
<use xlink:href="#path5_stroke_2x" transform="matrix(-1 0 0 1 -223 815)" fill="#20E8B6"/>
</g>
</g>
</g>
</g>
</g>
<defs>
<path id="path0_fill" d="M 0 0L 100 0L 100 100L 0 100L 0 0Z"/>
<path id="path1_stroke" d="M 0 0L 44.6542 0L 44.6542 -3L 0 -3L 0 0Z"/>
<path id="path2_stroke" d="M 0 0L 43.8292 0L 43.8292 -3L 0 -3L 0 0Z"/>
<path id="path3_fill" d="M 8.84 9.4L 11.74 9.4L 8.58 23L 3.48 23L 0.32 9.4L 3.22 9.4L 5.58 20.6L 6.48 20.6L 8.84 9.4ZM 13.5308 23L 13.5308 9.4L 22.3308 9.4L 22.3308 11.8L 16.2908 11.8L 16.2908 14.98L 21.1308 14.98L 21.1308 17.34L 16.2908 17.34L 16.2908 20.6L 22.3308 20.6L 22.3308 23L 13.5308 23ZM 24.605 23L 24.605 9.4L 29.265 9.4L 32.545 20.6L 32.745 20.6L 32.745 9.4L 35.505 9.4L 35.505 23L 30.965 23L 27.565 11.8L 27.365 11.8L 27.365 23L 24.605 23ZM 43.0522 23L 38.4722 23L 38.4722 9.4L 43.0522 9.4C 44.2255 9.4 45.1922 9.52667 45.9522 9.78C 46.7122 10.02 47.2989 10.4267 47.7122 11C 48.1389 11.56 48.4322 12.2267 48.5922 13C 48.7522 13.76 48.8322 14.7533 48.8322 15.98C 48.8322 17.2067 48.7589 18.2267 48.6122 19.04C 48.4655 19.84 48.1855 20.56 47.7722 21.2C 47.3722 21.8267 46.7855 22.2867 46.0122 22.58C 45.2389 22.86 44.2522 23 43.0522 23ZM 45.9522 17.6C 45.9789 17.1733 45.9922 16.5867 45.9922 15.84C 45.9922 15.08 45.9655 14.4733 45.9122 14.02C 45.8589 13.5667 45.7322 13.1533 45.5322 12.78C 45.3322 12.4067 45.0322 12.1533 44.6322 12.02C 44.2455 11.8733 43.7189 11.8 43.0522 11.8L 41.2322 11.8L 41.2322 20.6L 43.0522 20.6C 44.0522 20.6 44.7789 20.3467 45.2322 19.84C 45.6189 19.4267 45.8589 18.68 45.9522 17.6ZM 53.8661 18.46C 53.8661 20.0467 54.6728 20.84 56.2861 20.84C 57.8994 20.84 58.7061 20.0467 58.7061 18.46L 58.7061 9.4L 61.4661 9.4L 61.4661 18.4C 61.4661 20.0667 61.0328 21.2933 60.1661 22.08C 59.3128 22.8533 58.0194 23.24 56.2861 23.24C 54.5528 23.24 53.2528 22.8533 52.3861 22.08C 51.5328 21.2933 51.1061 20.0667 51.1061 18.4L 51.1061 9.4L 53.8661 9.4L 53.8661 18.46Z"/>
<path id="path4_fill" d="M 0 6C 0 2.68629 2.68629 0 6 0L 79 0C 82.3137 0 85 2.68629 85 6L 85 29C 85 32.3137 82.3137 35 79 35L 6 35C 2.68629 35 0 32.3137 0 29L 0 6Z"/>
<path id="path5_stroke_2x" d="M 6 3L 79 3L 79 -3L 6 -3L 6 3ZM 82 6L 82 29L 88 29L 88 6L 82 6ZM 79 32L 6 32L 6 38L 79 38L 79 32ZM 3 29L 3 6L -3 6L -3 29L 3 29ZM 6 32C 4.34315 32 3 30.6569 3 29L -3 29C -3 33.9706 1.02944 38 6 38L 6 32ZM 82 29C 82 30.6569 80.6569 32 79 32L 79 38C 83.9706 38 88 33.9706 88 29L 82 29ZM 79 3C 80.6569 3 82 4.34315 82 6L 88 6C 88 1.02944 83.9706 -3 79 -3L 79 3ZM 6 -3C 1.02944 -3 -3 1.02944 -3 6L 3 6C 3 4.34315 4.34315 3 6 3L 6 -3Z"/>
</defs>
</svg>
