<svg width="100" height="100" viewBox="0 0 100 100" version="1.1" xmlns="http://www.w3.org/2000/svg" xmlns:xlink="http://www.w3.org/1999/xlink">
<title>support</title>
<desc>Created using Figma</desc>
<g id="Canvas" transform="translate(-729 -745)">
<g id="support">
<g id="Rectangle">
<use xlink:href="#path0_fill" transform="translate(729 745)" fill="#FFFFFF"/>
</g>
<g id="Vector">
<use xlink:href="#path1_fill" transform="translate(754 770)" fill="#20E8B6"/>
</g>
</g>
</g>
<defs>
<path id="path0_fill" d="M 0 0L 100 0L 100 100L 0 100L 0 0Z"/>
<path id="path1_fill" d="M 40.9171 49.9734C 40.535 50.0089 40.1505 50.0089 39.7684 49.9734C 29.9257 48.0958 20.8762 43.2913 13.8003 36.1866C 6.72439 29.082 1.95037 20.0068 0.100814 10.1445C -0.15739 8.7011 0.0838524 7.21264 0.784678 5.92511C 1.4855 4.63757 2.60397 3.62802 3.95526 3.06328L 11.1281 0.0978387C 11.4273 -0.0266679 11.7626 -0.0325505 12.066 0.0813842C 12.3693 0.195319 12.6181 0.420542 12.7618 0.711377L 17.867 11.1927C 17.9838 11.39 18.0455 11.6152 18.0455 11.8445C 18.0455 12.0739 17.9838 12.2991 17.867 12.4964L 13.2978 18.5551C 12.8425 19.1817 12.5847 19.9302 12.5574 20.7046C 12.5301 21.479 12.7346 22.2439 13.1447 22.901C 16.6111 28.5945 21.3906 33.3723 27.0819 36.8335C 27.7301 37.2369 28.4826 37.4399 29.2454 37.4172C 30.0082 37.3944 30.7473 37.1469 31.3703 36.7057L 37.7774 32.1808C 37.9753 32.0664 38.1998 32.0061 38.4283 32.0061C 38.6568 32.0061 38.8813 32.0664 39.0792 32.1808L 49.2897 37.2936C 49.5801 37.4375 49.805 37.6866 49.9187 37.9905C 50.0325 38.2943 50.0266 38.6301 49.9023 38.9297L 46.9413 46.1132C 46.4313 47.2815 45.5866 48.2719 44.5142 48.959C 43.4418 49.6462 42.19 49.9992 40.9171 49.9734L 40.9171 49.9734ZM 11.0005 2.90989L 4.95078 5.4663C 4.15806 5.79312 3.49676 6.37526 3.07144 7.12068C 2.64612 7.86609 2.48106 8.73223 2.60238 9.58212C 4.36433 18.9507 8.90783 27.5689 15.6389 34.31C 22.37 41.051 30.9753 45.6013 40.33 47.3659C 41.1992 47.5264 42.097 47.3828 42.8731 46.9593C 43.6492 46.5358 44.2563 45.858 44.5929 45.0396L 47.1455 38.9553L 38.5432 34.7116L 32.8508 38.7763C 31.8211 39.5079 30.5991 39.9198 29.3373 39.9607C 28.0754 40.0016 26.8294 39.6697 25.7546 39.0064C 19.7095 35.3282 14.6326 30.2525 10.9494 24.2048C 10.2817 23.1125 9.95425 21.8458 10.0088 20.5663C 10.0634 19.2867 10.4975 18.0525 11.2557 17.0213L 15.2378 11.6273L 11.0005 2.90989Z"/>
</defs>
</svg>
