<svg width="100" height="100" viewBox="0 0 100 100" version="1.1" xmlns="http://www.w3.org/2000/svg" xmlns:xlink="http://www.w3.org/1999/xlink">
<title>time</title>
<desc>Created using Figma</desc>
<g id="Canvas" transform="translate(147 -773)">
<g id="time">
<g id="Rectangle">
<use xlink:href="#path0_fill" transform="translate(-147 773)" fill="#FFFFFF"/>
</g>
<g id="Group">
<g id="Rectangle">
<mask id="mask0_outline_ins">
<use xlink:href="#path1_fill" fill="white" transform="matrix(-1 0 0 1 -63 800.59)"/>
</mask>
<g mask="url(#mask0_outline_ins)">
<use xlink:href="#path2_stroke_2x" transform="matrix(-1 0 0 1 -63 800.59)" fill="#20E8B6"/>
</g>
</g>
<g id="Rectangle">
<mask id="mask1_outline_ins">
<use xlink:href="#path3_fill" fill="white" transform="matrix(-1 0 0 1 -63 800.59)"/>
</mask>
<g mask="url(#mask1_outline_ins)">
<use xlink:href="#path4_stroke_2x" transform="matrix(-1 0 0 1 -63 800.59)" fill="#20E8B6"/>
</g>
</g>
<g id="Rectangle">
<use xlink:href="#path5_fill" transform="matrix(-1 0 0 1 -105.312 796)" fill="#FFFFFF"/>
<mask id="mask2_outline_ins">
<use xlink:href="#path5_fill" fill="white" transform="matrix(-1 0 0 1 -105.312 796)"/>
</mask>
<g mask="url(#mask2_outline_ins)">
<use xlink:href="#path6_stroke_2x" transform="matrix(-1 0 0 1 -105.312 796)" fill="#20E8B6"/>
</g>
</g>
<g id="Rectangle">
<use xlink:href="#path5_fill" transform="matrix(-1 0 0 1 -70.6041 796)" fill="#FFFFFF"/>
<mask id="mask3_outline_ins">
<use xlink:href="#path5_fill" fill="white" transform="matrix(-1 0 0 1 -70.6041 796)"/>
</mask>
<g mask="url(#mask3_outline_ins)">
<use xlink:href="#path6_stroke_2x" transform="matrix(-1 0 0 1 -70.6041 796)" fill="#20E8B6"/>
</g>
</g>
<g id="Line">
<use xlink:href="#path7_stroke" transform="matrix(0.697717 0.716373 -0.805718 0.592299 -90.7925 814.361)" fill="#20E8B6"/>
</g>
</g>
</g>
</g>
<defs>
<path id="path0_fill" d="M 0 0L 100 0L 100 100L 0 100L 0 0Z"/>
<path id="path1_fill" d="M 0 6C 0 2.68629 2.68629 0 6 0L 62 0C 65.3137 0 68 2.68629 68 6L 68 45.4098C 68 48.7235 65.3137 51.4098 62 51.4098L 6 51.4098C 2.68629 51.4098 0 48.7235 0 45.4098L 0 6Z"/>
<path id="path2_stroke_2x" d="M 6 3L 62 3L 62 -3L 6 -3L 6 3ZM 65 6L 65 45.4098L 71 45.4098L 71 6L 65 6ZM 62 48.4098L 6 48.4098L 6 54.4098L 62 54.4098L 62 48.4098ZM 3 45.4098L 3 6L -3 6L -3 45.4098L 3 45.4098ZM 6 48.4098C 4.34315 48.4098 3 47.0667 3 45.4098L -3 45.4098C -3 50.3804 1.02944 54.4098 6 54.4098L 6 48.4098ZM 65 45.4098C 65 47.0667 63.6569 48.4098 62 48.4098L 62 54.4098C 66.9706 54.4098 71 50.3804 71 45.4098L 65 45.4098ZM 62 3C 63.6569 3 65 4.34315 65 6L 71 6C 71 1.02944 66.9706 -3 62 -3L 62 3ZM 6 -3C 1.02944 -3 -3 1.02944 -3 6L 3 6C 3 4.34315 4.34315 3 6 3L 6 -3Z"/>
<path id="path3_fill" d="M 0 6C 0 2.68629 2.68629 0 6 0L 62 0C 65.3137 0 68 2.68629 68 6L 68 15.9298L 0 15.9298L 0 6Z"/>
<path id="path4_stroke_2x" d="M 68 15.9298L 68 18.9298C 69.6569 18.9298 71 17.5867 71 15.9298L 68 15.9298ZM 0 15.9298L -3 15.9298C -3 17.5867 -1.65685 18.9298 6.66134e-16 18.9298L 0 15.9298ZM 6 3L 62 3L 62 -3L 6 -3L 6 3ZM 65 6L 65 15.9298L 71 15.9298L 71 6L 65 6ZM 68 12.9298L 0 12.9298L 0 18.9298L 68 18.9298L 68 12.9298ZM 3 15.9298L 3 6L -3 6L -3 15.9298L 3 15.9298ZM 62 3C 63.6569 3 65 4.34315 65 6L 71 6C 71 1.02944 66.9706 -3 62 -3L 62 3ZM 6 -3C 1.02944 -3 -3 1.02944 -3 6L 3 6C 3 4.34315 4.34315 3 6 3L 6 -3Z"/>
<path id="path5_fill" d="M 0 4C 0 1.79086 1.79086 0 4 0L 13.0625 0C 15.2716 0 17.0625 1.79086 17.0625 4L 17.0625 7.48718C 17.0625 9.69632 15.2716 11.4872 13.0625 11.4872L 4 11.4872C 1.79086 11.4872 0 9.69632 0 7.48718L 0 4Z"/>
<path id="path6_stroke_2x" d="M 4 3L 13.0625 3L 13.0625 -3L 4 -3L 4 3ZM 14.0625 4L 14.0625 7.48718L 20.0625 7.48718L 20.0625 4L 14.0625 4ZM 13.0625 8.48718L 4 8.48718L 4 14.4872L 13.0625 14.4872L 13.0625 8.48718ZM 3 7.48718L 3 4L -3 4L -3 7.48718L 3 7.48718ZM 4 8.48718C 3.44772 8.48718 3 8.03946 3 7.48718L -3 7.48718C -3 11.3532 0.134007 14.4872 4 14.4872L 4 8.48718ZM 14.0625 7.48718C 14.0625 8.03946 13.6148 8.48718 13.0625 8.48718L 13.0625 14.4872C 16.9285 14.4872 20.0625 11.3532 20.0625 7.48718L 14.0625 7.48718ZM 13.0625 3C 13.6148 3 14.0625 3.44772 14.0625 4L 20.0625 4C 20.0625 0.134007 16.9285 -3 13.0625 -3L 13.0625 3ZM 4 -3C 0.134007 -3 -3 0.134007 -3 4L 3 4C 3 3.44772 3.44772 3 4 3L 4 -3Z"/>
<path id="path7_stroke" d="M 11.4222 28.183L 11.1695 29.6615L 12.8665 29.9517L 12.9215 28.2309L 11.4222 28.183ZM -0.252794 27.7086L 11.1695 29.6615L 11.675 26.7044L 0.252794 24.7515L -0.252794 27.7086ZM 12.9215 28.2309L 13.8223 0.0479213L 10.8238 -0.0479213L 9.92301 28.1351L 12.9215 28.2309Z"/>
</defs>
</svg>
