<svg width="95" height="95" viewBox="0 0 95 95" version="1.1" xmlns="http://www.w3.org/2000/svg" xmlns:xlink="http://www.w3.org/1999/xlink">
<title>time</title>
<desc>Created using Figma</desc>
<g id="Canvas" transform="translate(157 -627)">
<g id="time">
<g id="Group">
<g id="Vector">
<use xlink:href="#path0_fill" transform="translate(-157 627)" fill="#20E8B6"/>
</g>
</g>
</g>
</g>
<defs>
<path id="path0_fill" d="M 47.5 2.75466e-05C 73.7045 2.75466e-05 95 21.2954 95 47.5C 95 73.7045 73.7045 95 47.5 95C 21.2955 95 0 73.7045 0 47.5C 0 21.2954 21.2955 2.75466e-05 47.5 2.75466e-05ZM 47.5 4.87182C 23.9284 4.87182 4.87179 23.9283 4.87179 47.5C 4.87179 71.0716 23.9284 90.1282 47.5 90.1282C 71.0716 90.1282 90.1282 71.0716 90.1282 47.5C 90.1282 23.9283 71.0716 4.87182 47.5 4.87182ZM 47.5 13.3975C 48.8453 13.3975 49.9359 14.488 49.9359 15.8334L 49.9359 47.5C 49.9359 48.8454 48.8453 49.9359 47.5 49.9359L 18.2692 49.9359C 16.9239 49.9359 15.8333 48.8454 15.8333 47.5C 15.8333 46.1547 16.9239 45.0641 18.2692 45.0641L 45.0641 45.0641L 45.0641 15.8334C 45.0641 14.488 46.1547 13.3975 47.5 13.3975Z"/>
</defs>
</svg>
