<svg width="100" height="100" viewBox="0 0 100 100" version="1.1" xmlns="http://www.w3.org/2000/svg" xmlns:xlink="http://www.w3.org/1999/xlink">
<title>visit</title>
<desc>Created using Figma</desc>
<g id="Canvas" transform="translate(-557 -741)">
<g id="visit">
<g id="Rectangle">
<use xlink:href="#path0_fill" transform="translate(557 741)" fill="#FFFFFF"/>
</g>
<g id="Group">
<g id="Rectangle">
<mask id="mask0_outline_ins">
<use xlink:href="#path1_fill" fill="white" transform="matrix(-1 0 0 1 641 767.59)"/>
</mask>
<g mask="url(#mask0_outline_ins)">
<use xlink:href="#path2_stroke_2x" transform="matrix(-1 0 0 1 641 767.59)" fill="#20E8B6"/>
</g>
</g>
<g id="Rectangle">
<mask id="mask1_outline_ins">
<use xlink:href="#path3_fill" fill="white" transform="matrix(-1 0 0 1 641 767.59)"/>
</mask>
<g mask="url(#mask1_outline_ins)">
<use xlink:href="#path4_stroke_2x" transform="matrix(-1 0 0 1 641 767.59)" fill="#20E8B6"/>
</g>
</g>
<g id="Rectangle">
<use xlink:href="#path5_fill" transform="matrix(-1 0 0 1 598.688 763)" fill="#FFFFFF"/>
<mask id="mask2_outline_ins">
<use xlink:href="#path5_fill" fill="white" transform="matrix(-1 0 0 1 598.688 763)"/>
</mask>
<g mask="url(#mask2_outline_ins)">
<use xlink:href="#path6_stroke_2x" transform="matrix(-1 0 0 1 598.688 763)" fill="#20E8B6"/>
</g>
</g>
<g id="Rectangle">
<use xlink:href="#path5_fill" transform="matrix(-1 0 0 1 633.396 763)" fill="#FFFFFF"/>
<mask id="mask3_outline_ins">
<use xlink:href="#path5_fill" fill="white" transform="matrix(-1 0 0 1 633.396 763)"/>
</mask>
<g mask="url(#mask3_outline_ins)">
<use xlink:href="#path6_stroke_2x" transform="matrix(-1 0 0 1 633.396 763)" fill="#20E8B6"/>
</g>
</g>
<g id="12">
<use xlink:href="#path7_fill" transform="translate(592 784)" fill="#20E8B6"/>
</g>
</g>
</g>
</g>
<defs>
<path id="path0_fill" d="M 0 0L 100 0L 100 100L 0 100L 0 0Z"/>
<path id="path1_fill" d="M 0 6C 0 2.68629 2.68629 0 6 0L 62 0C 65.3137 0 68 2.68629 68 6L 68 45.4098C 68 48.7235 65.3137 51.4098 62 51.4098L 6 51.4098C 2.68629 51.4098 0 48.7235 0 45.4098L 0 6Z"/>
<path id="path2_stroke_2x" d="M 6 3L 62 3L 62 -3L 6 -3L 6 3ZM 65 6L 65 45.4098L 71 45.4098L 71 6L 65 6ZM 62 48.4098L 6 48.4098L 6 54.4098L 62 54.4098L 62 48.4098ZM 3 45.4098L 3 6L -3 6L -3 45.4098L 3 45.4098ZM 6 48.4098C 4.34315 48.4098 3 47.0667 3 45.4098L -3 45.4098C -3 50.3804 1.02944 54.4098 6 54.4098L 6 48.4098ZM 65 45.4098C 65 47.0667 63.6569 48.4098 62 48.4098L 62 54.4098C 66.9706 54.4098 71 50.3804 71 45.4098L 65 45.4098ZM 62 3C 63.6569 3 65 4.34315 65 6L 71 6C 71 1.02944 66.9706 -3 62 -3L 62 3ZM 6 -3C 1.02944 -3 -3 1.02944 -3 6L 3 6C 3 4.34315 4.34315 3 6 3L 6 -3Z"/>
<path id="path3_fill" d="M 0 6C 0 2.68629 2.68629 0 6 0L 62 0C 65.3137 0 68 2.68629 68 6L 68 15.9298L 0 15.9298L 0 6Z"/>
<path id="path4_stroke_2x" d="M 68 15.9298L 68 18.9298C 69.6569 18.9298 71 17.5867 71 15.9298L 68 15.9298ZM 0 15.9298L -3 15.9298C -3 17.5867 -1.65685 18.9298 6.66134e-16 18.9298L 0 15.9298ZM 6 3L 62 3L 62 -3L 6 -3L 6 3ZM 65 6L 65 15.9298L 71 15.9298L 71 6L 65 6ZM 68 12.9298L 0 12.9298L 0 18.9298L 68 18.9298L 68 12.9298ZM 3 15.9298L 3 6L -3 6L -3 15.9298L 3 15.9298ZM 62 3C 63.6569 3 65 4.34315 65 6L 71 6C 71 1.02944 66.9706 -3 62 -3L 62 3ZM 6 -3C 1.02944 -3 -3 1.02944 -3 6L 3 6C 3 4.34315 4.34315 3 6 3L 6 -3Z"/>
<path id="path5_fill" d="M 0 4C 0 1.79086 1.79086 0 4 0L 13.0625 0C 15.2716 0 17.0625 1.79086 17.0625 4L 17.0625 7.48718C 17.0625 9.69632 15.2716 11.4872 13.0625 11.4872L 4 11.4872C 1.79086 11.4872 0 9.69632 0 7.48718L 0 4Z"/>
<path id="path6_stroke_2x" d="M 4 3L 13.0625 3L 13.0625 -3L 4 -3L 4 3ZM 14.0625 4L 14.0625 7.48718L 20.0625 7.48718L 20.0625 4L 14.0625 4ZM 13.0625 8.48718L 4 8.48718L 4 14.4872L 13.0625 14.4872L 13.0625 8.48718ZM 3 7.48718L 3 4L -3 4L -3 7.48718L 3 7.48718ZM 4 8.48718C 3.44772 8.48718 3 8.03946 3 7.48718L -3 7.48718C -3 11.3532 0.134007 14.4872 4 14.4872L 4 8.48718ZM 14.0625 7.48718C 14.0625 8.03946 13.6148 8.48718 13.0625 8.48718L 13.0625 14.4872C 16.9285 14.4872 20.0625 11.3532 20.0625 7.48718L 14.0625 7.48718ZM 13.0625 3C 13.6148 3 14.0625 3.44772 14.0625 4L 20.0625 4C 20.0625 0.134007 16.9285 -3 13.0625 -3L 13.0625 3ZM 4 -3C 0.134007 -3 -3 0.134007 -3 4L 3 4C 3 3.44772 3.44772 3 4 3L 4 -3Z"/>
<path id="path7_fill" d="M 11.022 19.712C 11.902 19.712 12.342 20.086 12.342 20.834C 12.342 21.6113 11.902 22 11.022 22L 3.586 22C 2.69133 22 2.244 21.6113 2.244 20.834C 2.244 20.086 2.69133 19.712 3.586 19.712L 5.874 19.712L 5.874 9.68L 3.762 10.978C 3.55667 11.0953 3.37333 11.154 3.212 11.154C 2.904 11.154 2.64 11.022 2.42 10.758C 2.21467 10.494 2.112 10.2007 2.112 9.878C 2.112 9.45267 2.30267 9.12267 2.684 8.888L 6.094 6.776C 6.534 6.512 6.952 6.38 7.348 6.38C 7.75867 6.38 8.08867 6.50467 8.338 6.754C 8.58733 7.00333 8.712 7.348 8.712 7.788L 8.712 19.712L 11.022 19.712ZM 24.1474 19.712C 25.0274 19.712 25.4674 20.086 25.4674 20.834C 25.4674 21.6113 25.0274 22 24.1474 22L 15.7874 22C 15.4061 22 15.1054 21.89 14.8854 21.67C 14.6654 21.4353 14.5554 21.1493 14.5554 20.812C 14.5554 20.372 14.7241 19.976 15.0614 19.624L 20.0774 14.234C 20.6934 13.5593 21.1407 12.9433 21.4194 12.386C 21.7127 11.814 21.8594 11.2493 21.8594 10.692C 21.8594 10.0027 21.6614 9.47467 21.2654 9.108C 20.8694 8.74133 20.3047 8.558 19.5714 8.558C 18.9701 8.558 18.3834 8.67533 17.8114 8.91C 17.2541 9.13 16.6894 9.438 16.1174 9.834C 15.9707 9.93667 15.8241 10.0247 15.6774 10.098C 15.5307 10.1567 15.3841 10.186 15.2374 10.186C 14.9881 10.186 14.7681 10.0687 14.5774 9.834C 14.4014 9.59933 14.3134 9.32067 14.3134 8.998C 14.3134 8.778 14.3501 8.58733 14.4234 8.426C 14.5114 8.26467 14.6434 8.11067 14.8194 7.964C 15.4647 7.45067 16.2201 7.04733 17.0854 6.754C 17.9507 6.446 18.8161 6.292 19.6814 6.292C 21.1921 6.292 22.3947 6.67333 23.2894 7.436C 24.1987 8.19867 24.6534 9.22533 24.6534 10.516C 24.6534 11.4107 24.4627 12.254 24.0814 13.046C 23.7001 13.8233 23.0547 14.696 22.1454 15.664L 18.3394 19.712L 24.1474 19.712Z"/>
</defs>
</svg>
